<svg xmlns="http://www.w3.org/2000/svg" width="22.61" height="21.56" viewBox="0 0 22.61 21.56" id="account_settings"><g fill="#212529"><path d="M16.5 13.59c-.28 0-.5.22-.5.5v1.97c0 .28-.23.5-.5.5h-14c-.28 0-.5-.22-.5-.5v-10c0-.28.22-.5.5-.5h6.98c.28 0 .5-.22.5-.5s-.22-.5-.5-.5h-6.98c-.83 0-1.5.67-1.5 1.5v10c0 .83.67 1.5 1.5 1.5h14c.83 0 1.5-.67 1.5-1.5v-1.97c0-.27-.22-.5-.5-.5zM12.49 18.56h-8c-.83 0-1.5.67-1.5 1.5s.67 1.5 1.5 1.5h8c.83 0 1.5-.67 1.5-1.5s-.67-1.5-1.5-1.5zm0 2h-8c-.28 0-.5-.22-.5-.5s.22-.5.5-.5h8c.28 0 .5.22.5.5s-.22.5-.5.5zM8.47 9.57c.28 0 .5-.22.5-.5s-.22-.5-.5-.5l-3.97-.01c-.28 0-.5.23-.5.5 0 .28.22.5.5.5l3.97.01zM16.5 3.59c-1.38 0-2.5 1.12-2.5 2.5s1.12 2.5 2.5 2.5 2.5-1.12 2.5-2.5-1.12-2.5-2.5-2.5zm0 4c-.83 0-1.5-.67-1.5-1.5s.67-1.5 1.5-1.5 1.5.67 1.5 1.5-.67 1.5-1.5 1.5zM21.53 6.39l.01-.31-.01-.3.94-.95c.14-.15.18-.36.1-.55l-.61-1.4c-.08-.18-.26-.3-.46-.3h-1.42l-.08-.07v-1.43c0-.2-.12-.38-.31-.46l-1.38-.58c-.18-.08-.39-.04-.54.1l-1.01.96c-.18-.01-.32-.01-.52 0l-.98-.95c-.14-.14-.36-.18-.54-.1l-1.42.58c-.17.06-.3.25-.3.45v1.47l-.03.03h-1.47c-.2 0-.38.12-.46.3l-.59 1.38c-.08.19-.04.4.1.55l.99 1.01-.01.26.01.26-1 1.06c-.14.15-.17.36-.09.55l.59 1.32c.08.18.26.3.46.3h1.47l.05.06v1.46c0 .2.11.37.29.46l1.38.63.21.04c.13 0 .25-.05.35-.14l1.02-1c.18.01.32.01.48 0l1.01.99c.15.14.36.18.55.1l1.39-.61c.18-.08.3-.26.3-.46v-1.45l.07-.07h1.44c.2 0 .38-.12.46-.31l.58-1.37c.08-.18.04-.4-.1-.54l-.92-.97zm-.87-1.16c-.1.1-.15.25-.14.39.02.31.04.64 0 .92-.02.14.04.28.14.38l.86.9-.32.76h-1.31c-.14 0-.27.06-.37.16l-.33.31c-.11.09-.17.23-.17.38v1.33l-.79.34-.93-.91c-.1-.1-.25-.16-.39-.14-.21.02-.56.02-.77 0-.14-.01-.29.04-.4.14l-.94.92-.77-.35v-1.2s.01-.31-.11-.45l-.4-.43c-.13-.15-.5-.11-.5-.11h-1.18l-.34-.72.92-.98c.1-.1.16-.24.13-.38-.05-.24-.02-.6 0-.82.01-.15-.04-.29-.14-.39l-.91-.93.33-.77h1.37c.15 0 .24-.06.32-.12l.34-.3c.09-.07.14-.19.14-.36v-1.38l.81-.33.91.88c.11.1.25.15.39.14.11-.01.62-.03.8 0 .14.02.29-.04.39-.13l.93-.88.77.32v1.31c0 .14.06.28.17.38.11.1.23.2.32.31.09.11.23.17.37.17h1.3l.34.79-.84.85zM4.5 13.56l7.98.01c.28 0 .5-.22.5-.5s-.22-.5-.5-.5l-7.98-.01c-.26.02-.5.22-.5.5s.22.5.5.5z"/></g></svg>