<svg xmlns="http://www.w3.org/2000/svg" id="arrow_clouds" viewBox="0 0 438.98 111.57"><g fill="#449AD8"><path d="M438.91 16.18c-.21-.51-.8-.76-1.3-.55-10.3 4.17-22.21 5.06-33.54 2.52-4.87-1.09-9.08-2.62-13.2-4.78 2.48-3.89 4.55-8.1 6.13-12.58.18-.52-.09-1.09-.61-1.27-.52-.18-1.09.09-1.27.61-8.34 23.75-30.93 39.7-56.2 39.7l-2.42-.04c-5.87-.21-11.65-1.27-17.17-3.15l-.04-.01c-.11-.03-.22-.05-.33-.04h-.04c-.12.01-.24.04-.35.09h-.01c-.11.05-.2.13-.29.22l-.02.02-.11.11c-16.17 25.92-44.23 41.39-75.06 41.39-.55 0-1 .45-1 1s.45 1 1 1c31.26 0 59.73-15.56 76.33-41.67 5.49 1.79 11.21 2.81 17.04 3.02l2.45.04c20.67 0 39.59-10.32 50.87-26.78 4.33 2.29 8.76 3.91 13.87 5.06 4.37.98 8.82 1.47 13.25 1.47 7.44 0 14.79-1.38 21.48-4.09.5-.19.74-.78.54-1.29zM194.98 78.56c-30.08 0-57.61-15.18-73.85-40.64 4.35-1.67 8.52-3.84 12.42-6.5.46-.31.57-.93.26-1.39-.31-.46-.93-.57-1.39-.26-9.76 6.66-21.23 10.18-33.17 10.18l-.56-.01c-19.17-.24-37.45-10.67-48.89-27.91-.3-.46-.92-.58-1.38-.29-3.43 2.23-8.69 5.15-14.23 6.41-11.06 2.52-22.71 1.62-32.81-2.53-.51-.21-1.09.03-1.3.54s.03 1.1.54 1.3c10.48 4.3 22.56 5.24 34.01 2.63 5.39-1.23 10.49-3.92 14.04-6.15 11.84 17.3 30.45 27.74 49.99 27.99l.58.01c6.88 0 13.6-1.13 19.96-3.32 16.57 26.27 44.86 41.94 75.78 41.94.55 0 1-.45 1-1s-.45-1-1-1z"/></g><path fill="#22B37F" d="M238.4 90.15c-.78-.78-2.05-.78-2.83 0l-14.59 14.59v-59.16c0-1.1-.9-2-2-2s-2 .9-2 2v59.18l-14.57-14.62c-.78-.78-2.05-.78-2.83 0-.78.78-.78 2.05 0 2.83l17.95 18.02c.39.39.9.59 1.42.59h.04c.51 0 1.02-.2 1.41-.59l18-18c.78-.8.78-2.06 0-2.84z"/></svg>