<?xml version="1.0" encoding="utf-8"?>
<!-- Generator: Adobe Illustrator 16.0.0, SVG Export Plug-In . SVG Version: 6.00 Build 0)  -->
<!DOCTYPE svg PUBLIC "-//W3C//DTD SVG 1.1//EN" "http://www.w3.org/Graphics/SVG/1.1/DTD/svg11.dtd">
<svg version="1.1" xmlns="http://www.w3.org/2000/svg" xmlns:xlink="http://www.w3.org/1999/xlink" x="0px" y="0px"
	 width="208.94px" height="146.16px" viewBox="0 0 208.94 146.16" enable-background="new 0 0 208.94 146.16" xml:space="preserve">
<g id="bg_percentage">
	<path fill="none" stroke="#E3E3E3" stroke-width="12" stroke-linecap="round" stroke-linejoin="round" stroke-miterlimit="10" d="
		M12.48,139.95C8.29,129,6,117.1,6,104.67C6,50.17,50.09,6,104.47,6c54.38,0,98.47,44.17,98.47,98.67c0,12.51-2.32,24.47-6.56,35.49
		"/>
</g>
<g id="Capa_1">
	<path fill="none" stroke="#E3E3E3" stroke-width="12" stroke-linecap="round" stroke-linejoin="round" stroke-miterlimit="10" d="
		M12.48,139.95C8.29,129,6,117.1,6,104.67C6,50.17,50.09,6,104.47,6c54.38,0,98.47,44.17,98.47,98.67c0,12.51-2.32,24.47-6.56,35.49
		"/>
	<path fill="none" stroke="#449AD8" stroke-width="12" stroke-linecap="round" stroke-linejoin="round" stroke-miterlimit="10" d="
		M12.48,139.95C8.29,129,6,117.1,6,104.67c0-35.36,18.56-66.38,46.45-83.8"/>
</g>
</svg>
