<svg xmlns="http://www.w3.org/2000/svg" id="btn_close_session" width="20.06" height="17" viewBox="0 0 20.06 17"><g fill="#21B27F"><path d="M19.91 8.17l-4.07-4.04c-.2-.19-.51-.19-.71 0-.19.2-.19.51 0 .71l3.19 3.16h-10.3c-.28 0-.5.22-.5.5s.22.5.5.5h10.34l-3.24 3.16c-.2.19-.2.51-.01.71.1.1.23.15.36.15.13 0 .25-.05.35-.14l4.09-4c.1-.09.15-.22.15-.36s-.06-.26-.15-.35zM12.49 12.5c-.28 0-.5.22-.5.5v2.5c0 .28-.22.5-.5.5h-9.99c-.28 0-.5-.22-.5-.5v-14c0-.28.22-.5.5-.5h10.09c.3 0 .4.04.4.5v2.5c0 .28.22.5.5.5s.5-.22.5-.5v-2.5c0-1.31-.88-1.5-1.4-1.5h-10.09c-.83 0-1.5.67-1.5 1.5v14c0 .83.67 1.5 1.5 1.5h9.99c.83 0 1.5-.67 1.5-1.5v-2.5c0-.27-.22-.5-.5-.5z"/></g></svg>