<svg xmlns="http://www.w3.org/2000/svg" id="delete" width="14" height="15.98" viewBox="0 0 14 15.98"><path fill="#869196" d="M11.28 15.98h-8.6c-.96 0-1.68-.68-1.68-1.59v-8.92c0-.28.22-.5.5-.5h10.98c.28 0 .5.22.5.5v8.92c0 .89-.74 1.59-1.7 1.59zm-9.28-10.01v8.42c0 .35.28.59.68.59h8.6c.41 0 .7-.25.7-.59v-8.42h-9.98zM13.5 3.99h-13c-.28 0-.5-.23-.5-.5v-2c0-.28.22-.5.5-.5h2.24l1.04-.87c.09-.08.2-.12.32-.12h5.82c.12 0 .23.04.32.11l1.06.87h2.2c.28 0 .5.22.5.5v2c0 .28-.22.51-.5.51zm-12.5-1h12v-1h-1.88c-.12 0-.23-.04-.32-.11l-1.06-.88h-5.46l-1.04.87c-.09.07-.2.12-.32.12h-1.92v1z"/></svg>