<svg xmlns="http://www.w3.org/2000/svg" id="edit" width="20.41" height="13.43" viewBox="0 0 20.41 13.43"><path fill="#869196" d="M9.5 1.43h-9c-.28 0-.5-.22-.5-.5s.22-.5.5-.5h9c.28 0 .5.22.5.5s-.22.5-.5.5zM9.5 4.43h-9c-.28 0-.5-.22-.5-.5s.22-.5.5-.5h9c.28 0 .5.22.5.5s-.22.5-.5.5zM5.5 7.43h-5c-.28 0-.5-.22-.5-.5s.22-.5.5-.5h5c.28 0 .5.22.5.5s-.22.5-.5.5zM7.55 13.43c-.13 0-.26-.05-.35-.15-.13-.13-.18-.33-.12-.51l1-2.99c.02-.07.06-.14.12-.19l6-6.06c.09-.09.22-.15.35-.15.13 0 .26.05.35.15l1.98 1.98c.19.19.2.51 0 .71l-5.99 6.06c-.06.06-.12.1-.2.12l-3 1-.14.03zm1.43-3.22l-.64 1.93 1.93-.65 5.55-5.62-1.28-1.28-5.56 5.62zM18.56 4.4c-.13 0-.26-.05-.35-.15l-2.03-2.03c-.2-.2-.2-.51 0-.71l1.01-1.02c.63-.63 2.05-.63 2.69.01.72.73.73 2 .01 2.72l-.96 1.02c-.1.1-.23.15-.37.16zm-1.33-2.54l1.31 1.31.61-.65c.3-.3.37-.95 0-1.32-.25-.25-1.02-.26-1.27-.01l-.65.67z"/></svg>