<?xml version="1.0" encoding="utf-8"?>
<!-- Generator: Adobe Illustrator 16.0.0, SVG Export Plug-In . SVG Version: 6.00 Build 0)  -->
<!DOCTYPE svg PUBLIC "-//W3C//DTD SVG 1.1//EN" "http://www.w3.org/Graphics/SVG/1.1/DTD/svg11.dtd">
<svg version="1.1" id="experiences_publish" xmlns="http://www.w3.org/2000/svg" xmlns:xlink="http://www.w3.org/1999/xlink" x="0px" y="0px"
	 width="20px" height="19.53px" viewBox="0 0 20 19.53" enable-background="new 0 0 20 19.53" xml:space="preserve">
<path fill-rule="evenodd" clip-rule="evenodd" fill="none" stroke="#3B4244" stroke-linecap="round" stroke-linejoin="round" stroke-miterlimit="10" d="
	M2.48,3.52H1.51c-0.55,0-1,0.45-1,1L0.5,19.03l3.99-3c0,0,0.59-0.5,1-0.5c0.56,0,10.01,0,10.01,0c0.55,0,1-0.45,1-1.08v-0.88"/>
<g>
	<g>
		<g>
			<path fill="none" stroke="#3B4244" stroke-linecap="round" stroke-linejoin="round" stroke-miterlimit="10" d="M5.5,13.12
				l2.83-2.25c0,0,0.36-0.37,0.71-0.37c0.4,0,9.76,0,9.76,0c0.39,0,0.7-0.29,0.7-0.68V1.2c0-0.33-0.07-0.7-0.63-0.7H6.21
				C5.82,0.5,5.5,0.81,5.5,1.2V13.12z"/>
		</g>
		<g>
			<g>
				
					<line fill="none" stroke="#3B4244" stroke-linecap="round" stroke-linejoin="round" stroke-miterlimit="10" x1="16.51" y1="3.5" x2="8.53" y2="3.5"/>
				
					<line fill="none" stroke="#3B4244" stroke-linecap="round" stroke-linejoin="round" stroke-miterlimit="10" x1="16.51" y1="5.51" x2="8.53" y2="5.51"/>
				
					<line fill="none" stroke="#3B4244" stroke-linecap="round" stroke-linejoin="round" stroke-miterlimit="10" x1="13.49" y1="7.51" x2="8.55" y2="7.51"/>
			</g>
		</g>
	</g>
</g>
</svg>
