<svg version="1.1" xmlns="http://www.w3.org/2000/svg" xmlns:xlink="http://www.w3.org/1999/xlink">
<g id="following" width="20.5" height="15" viewBox="0 0 20.5 15"><path d="M16.01 1.53c.13 0 .26.05.35.15l3.99 4c.2.19.2.51 0 .71l-3.99 4c-.2.2-.51.2-.71 0s-.2-.51 0-.71l3.64-3.65-3.64-3.65c-.2-.2-.2-.51 0-.71.1-.09.23-.14.36-.14zM7.49 8c-2.21 0-4-1.79-4-4s1.79-4 4-4 4 1.79 4 4-1.8 4-4 4zm0-7c-1.65 0-3 1.35-3 3s1.35 3 3 3 3-1.35 3-3-1.35-3-3-3zM14.52 15c-.25 0-.47-.19-.5-.45-.25-2.64-2.98-5.57-6.5-5.57-3.54 0-6.28 2.94-6.53 5.57-.02.27-.26.46-.54.45-.27-.03-.47-.27-.45-.55.3-3.13 3.39-6.48 7.53-6.48 4.12 0 7.2 3.35 7.49 6.48.03.27-.18.52-.45.54l-.05.01z"/></g></svg>