<svg xmlns="http://www.w3.org/2000/svg" width="36" height="36" viewBox="0 0 36 36">
	<path id="icon_not_image" d="M32.82 0h-29.61c-1.84 0-3.21 1.93-3.21 3.65v29.62c0 1.63 1.29 2.73 3.21 2.73h29.61c1.92 0 3.17-1.07 3.18-2.72v-29.63c0-1.72-1.36-3.65-3.18-3.65zm2.18 33.27c0 1.61-1.67 1.73-2.18 1.73h-29.61c-.52 0-2.21-.12-2.21-1.73v-29.62c0-1.2.99-2.65 2.21-2.65h29.61c1.21 0 2.18 1.45 2.18 2.65v29.62zm-21.04-17.26c2.2 0 4-1.79 4-4s-1.79-4-4-4-4 1.79-4 4 1.79 4 4 4zm0-7c1.65 0 3 1.35 3 3s-1.34 3-3 3-3-1.35-3-3 1.34-3 3-3zm11.42 8.6c-.1-.11-.23-.16-.39-.18-.15 0-.29.07-.38.19l-7.67 9.6-5.57-5.55c-.1-.1-.22-.14-.37-.15-.14.01-.27.07-.36.17l-6.02 7c-.18.21-.16.53.05.71.09.08.21.12.33.12.14 0 .28-.06.38-.17l5.67-6.6 5.59 5.57c.1.1.24.16.38.14.14-.01.27-.08.36-.19l7.64-9.56 5.58 6.59c.18.21.5.24.71.06.21-.18.24-.49.06-.71l-5.99-7.04z" fill="#CED1D2"/>
</svg>