<svg xmlns="http://www.w3.org/2000/svg" id="icon_report" width="17" height="17" viewBox="0 0 17 17"><path fill="#4499D8" d="M8.5 17c-4.69 0-8.5-3.81-8.5-8.5 0-4.69 3.81-8.5 8.5-8.5 4.69 0 8.5 3.81 8.5 8.5 0 4.69-3.81 8.5-8.5 8.5zm0-16c-4.13 0-7.5 3.37-7.5 7.5 0 4.14 3.37 7.5 7.5 7.5s7.5-3.36 7.5-7.5c0-4.13-3.36-7.5-7.5-7.5zM6.99 11.52c-.12.02-.25-.05-.34-.14l-3-3.04c-.18-.19-.17-.49.01-.67.19-.18.48-.18.67.01l2.66 2.7 5.69-5.7c.18-.18.48-.19.67 0 .18.18.18.48 0 .67l-6.03 6.04c-.08.08-.2.13-.33.13z"/></svg>