<svg xmlns="http://www.w3.org/2000/svg" width="18.01" height="13.02" viewBox="0 0 18.01 13.02"><path d="M17.86 5.97c-.31-.61-.74-1.09-1.12-1.5-.72-.79-1.69-1.56-2.76-2.25l1.36-1.36c.19-.2.19-.51 0-.71-.2-.19-.51-.19-.71 0l-4.18 4.21-.01.01-.01.01-7.74 7.79c-.19.2-.19.51 0 .71.1.1.23.15.35.15.13 0 .26-.05.35-.15l1.55-1.56c.3.16.61.33.9.46 1.01.45 2.15.7 3.24.7h.01c1.02-.02 2.12-.27 3.09-.7 1.31-.59 3.2-1.74 4.56-3.19.38-.41.81-.87 1.12-1.47.2-.39.2-.78 0-1.15zm-6.86.51c0 1.12-.88 2-2 2-.35 0-.69-.09-.98-.26l2.72-2.73c.16.29.26.63.26.99zm5.01 1.42c-1.26 1.34-3.07 2.43-4.24 2.96-.83.37-1.82.6-2.71.62-.91 0-1.94-.22-2.82-.61-.18-.08-.38-.19-.56-.29l1.62-1.63c.49.33 1.08.52 1.7.52 1.68 0 3-1.32 3-3 0-.63-.2-1.23-.54-1.72l1.8-1.81c1.07.66 2.04 1.43 2.75 2.2.35.39.72.79.97 1.28.05.09.05.13 0 .22-.26.49-.62.88-.97 1.26zm-13.22.65s-.44-.27-.79-.65c-.35-.38-.72-.77-.96-1.25-.05-.09-.05-.13 0-.23.25-.5.62-.9.97-1.28 1.26-1.37 3.07-2.48 4.24-3.01.87-.4 1.9-.62 2.82-.62.67.01.92.03 1.34.14.27.07.54-.1.6-.37.07-.27-.1-.54-.37-.6-.53-.14-.87-.16-1.58-.18-1.07 0-2.21.25-3.23.71-1.31.6-3.2 1.77-4.56 3.25-.38.42-.81.89-1.12 1.5-.19.38-.19.76 0 1.14.31.61.75 1.07 1.13 1.48.45.48.98.8 1 .82.08.05.17.07.26.07.17 0 .33-.08.43-.24.13-.23.06-.54-.18-.68z" fill="#879196"/></svg>