<svg xmlns="http://www.w3.org/2000/svg" id="icon_no_following" width="21.057" height="15.002" viewBox="0 0 21.057 15.002"><path fill="#22B37F" d="M8.215 7.984c2.129-.087 3.839-1.834 3.839-3.984 0-2.206-1.794-4-4-4s-4 1.794-4 4c0 2.144 1.699 3.885 3.819 3.981-4.328.076-7.556 3.377-7.871 6.468-.028.274.172.521.447.548.29.039.521-.172.548-.446.269-2.638 3.22-5.576 7.026-5.576 3.783 0 6.72 2.938 6.989 5.576.027.258.244.449.497.449l.052-.003c.274-.027.475-.273.446-.548-.315-3.081-3.509-6.368-7.792-6.465zm-3.161-3.984c0-1.654 1.346-3 3-3s3 1.346 3 3-1.346 3-3 3-3-1.346-3-3zm15.503.988h-5c-.276 0-.5.224-.5.5s.224.5.5.5h5c.276 0 .5-.224.5-.5s-.224-.5-.5-.5z"/></svg>