<?xml version="1.0" encoding="utf-8"?>
<!-- Generator: Adobe Illustrator 16.0.0, SVG Export Plug-In . SVG Version: 6.00 Build 0)  -->
<!DOCTYPE svg PUBLIC "-//W3C//DTD SVG 1.1//EN" "http://www.w3.org/Graphics/SVG/1.1/DTD/svg11.dtd">
<svg version="1.1" id="img_email" xmlns="http://www.w3.org/2000/svg" xmlns:xlink="http://www.w3.org/1999/xlink" x="0px" y="0px"
	 width="146.42px" height="88.25px" viewBox="0 0 146.42 88.25" enable-background="new 0 0 146.42 88.25" xml:space="preserve">
<g>
	<path fill="#6EE0B1" d="M51.46,31.17c-0.35,11.66-0.67,28.96-0.21,32.82c0,0,0,0,0,0.01c0.01,0,0.02,0.01,0.03,0.01L67.79,47.5
		L51.46,31.17z"/>
	<path fill="#6EE0B1" d="M98.83,30.69c-0.74-0.74-39.36-0.14-46.46-0.02l23.05,23.05l18.69-17.71c0.2-0.19,0.52-0.18,0.71,0.02
		c0.19,0.2,0.18,0.52-0.02,0.71L83.78,47.18c0.03,0.02,0.07,0.04,0.1,0.07l15,15C99.03,55.49,99.53,31.38,98.83,30.69z"/>
	<path fill="#6EE0B1" d="M98.83,64c0,0,0-0.13,0.01-0.38L83.17,47.95c-0.04-0.04-0.06-0.08-0.08-0.12l-7.34,6.95
		c-0.1,0.09-0.22,0.14-0.34,0.14c-0.13,0-0.26-0.05-0.35-0.15l-6.56-6.56L52.52,64.19C60.1,64.73,98.83,64,98.83,64z"/>
</g>
<g>
	<path fill="#D3DBE3" d="M100.42,29.6c2.31-0.89,2.64,0.39,2.71,2.54c0.14,4.26,0.31,8.51,0.53,12.78c0.23,4.63,0.61,9.3,0.56,13.94
		c-0.03,2.63-0.07,7.45-3.14,8.54c-1.28,0.45-2.77,0.11-4.09,0.06c-1.55-0.06-5.8-0.47-7.3-0.04c-2.68,0.76-16.24-0.46-19.01-0.97
		c-0.31-0.06-2.16-0.2-2.17-0.65c-0.01-0.61,13.66-1.36,14.05-1.47c2.62-0.73,9.53,0.84,12.23,0.54c1.34-0.15,3.65,0.1,4.71-0.94
		c1.52-1.5,1.19-5.48,1.33-7.38c0.33-4.45,0.62-8.94,0.47-13.4c-0.09-2.8-0.52-5.48-1.04-8.22c-0.26-1.34-0.31-2.57-0.08-3.92
		L100.42,29.6z"/>
</g>
<path fill="#47C6AD" d="M61.23,34.22c-0.73-0.44,0.6-1.06,5.74-1.21c6.27-0.18,6.85-0.97,24.2-2.67l-39.19-0.02
	c0,0,21.7,22.79,24.05,23.82C72.36,44.89,61.97,34.66,61.23,34.22z"/>
<g>
	<path fill="#47C6AD" d="M53.75,64.25c0,0,2.58-2.25,4.41-2.59s15.79-2.42,20.45-1.58s10.71,2.75,12.05,1.58
		c1.33-1.17,0.67-4.5,0.67-4.5l8.33,7.5L53.75,64.25z"/>
</g>
<g>
	<g>
		<path fill="#589FEC" d="M118.11,26.38c-0.14,0-0.28-0.06-0.37-0.17c-0.18-0.21-0.16-0.52,0.04-0.71c3.49-3.09,7.23-6.66,7.68-7.5
			c-0.44-0.83-4.12-4.34-7.56-7.38c-0.21-0.18-0.23-0.5-0.04-0.71c0.18-0.21,0.5-0.23,0.71-0.04c5.25,4.64,7.92,7.38,7.92,8.12
			s-2.71,3.52-8.04,8.24C118.35,26.34,118.23,26.38,118.11,26.38z"/>
	</g>
</g>
<g>
	<path fill="#589FEC" d="M61.33,13.33c-1.65,0-3-1.35-3-3c0-1.65,1.35-3,3-3s3,1.35,3,3C64.33,11.99,62.98,13.33,61.33,13.33z
		 M61.33,8.33c-1.1,0-2,0.9-2,2c0,1.1,0.9,2,2,2s2-0.9,2-2C63.33,9.23,62.43,8.33,61.33,8.33z"/>
</g>
<g>
	<g>
		<path fill="#425773" d="M68.33,76.33c-1.65,0-3-1.35-3-3c0-1.65,1.35-3,3-3s3,1.35,3,3C71.33,74.99,69.98,76.33,68.33,76.33z
			 M68.33,71.33c-1.1,0-2,0.9-2,2s0.9,2,2,2s2-0.9,2-2S69.43,71.33,68.33,71.33z"/>
	</g>
</g>
<g>
	<path fill="#589FEC" d="M13.27,74.25c-0.13,0-0.26-0.05-0.35-0.15l-3.11-3.11l-2.7,2.7c-0.09,0.09-0.22,0.15-0.35,0.15l0,0
		c-0.13,0-0.26-0.05-0.35-0.15l-2.94-2.94l-2.61,2.61c-0.2,0.2-0.51,0.2-0.71,0s-0.2-0.51,0-0.71l2.97-2.97
		c0.19-0.19,0.52-0.19,0.71,0l2.94,2.94l2.7-2.7c0.2-0.2,0.51-0.2,0.71,0l3.11,3.11l2.78-2.78c0.2-0.2,0.51-0.2,0.71,0l2.61,2.61
		l2.2-2.2c0.2-0.2,0.51-0.2,0.71,0s0.2,0.51,0,0.71l-2.55,2.55c-0.2,0.2-0.51,0.2-0.71,0l-2.61-2.61l-2.78,2.78
		C13.53,74.2,13.4,74.25,13.27,74.25z"/>
</g>
<g>
	<path fill="#425773" d="M137.27,39.25c-0.13,0-0.26-0.05-0.35-0.15l-3.11-3.11l-2.7,2.7c-0.09,0.09-0.22,0.15-0.35,0.15l0,0
		c-0.13,0-0.26-0.05-0.35-0.15l-2.94-2.94l-2.61,2.61c-0.2,0.2-0.51,0.2-0.71,0s-0.2-0.51,0-0.71l2.97-2.97
		c0.09-0.09,0.22-0.15,0.35-0.15l0,0c0.13,0,0.26,0.05,0.35,0.15l2.94,2.94l2.7-2.7c0.2-0.2,0.51-0.2,0.71,0l3.11,3.11l2.78-2.78
		c0.2-0.2,0.51-0.2,0.71,0l2.61,2.61l2.2-2.2c0.2-0.2,0.51-0.2,0.71,0s0.2,0.51,0,0.71l-2.55,2.55c-0.2,0.2-0.51,0.2-0.71,0
		l-2.61-2.61l-2.78,2.78C137.53,39.2,137.4,39.25,137.27,39.25z"/>
</g>
<g>
	<path fill="#425773" d="M75.27,22.25c-0.13,0-0.26-0.05-0.35-0.15l-3.11-3.11l-2.7,2.7c-0.09,0.09-0.22,0.15-0.35,0.15l0,0
		c-0.13,0-0.26-0.05-0.35-0.15l-2.94-2.94l-2.61,2.61c-0.2,0.2-0.51,0.2-0.71,0s-0.2-0.51,0-0.71l2.97-2.97
		c0.09-0.09,0.22-0.15,0.35-0.15l0,0c0.13,0,0.26,0.05,0.35,0.15l2.94,2.94l2.7-2.7c0.2-0.2,0.51-0.2,0.71,0l3.11,3.11l2.78-2.78
		c0.2-0.2,0.51-0.2,0.71,0l2.61,2.61l2.2-2.2c0.2-0.2,0.51-0.2,0.71,0s0.2,0.51,0,0.71l-2.55,2.55c-0.2,0.2-0.51,0.2-0.71,0
		l-2.61-2.61l-2.78,2.78C75.53,22.2,75.4,22.25,75.27,22.25z"/>
</g>
<g>
	<g>
		<path fill="#425773" d="M120.25,52.25c-0.13,0-0.26-0.05-0.35-0.15l-3.25-3.25c-0.2-0.2-0.2-0.51,0-0.71s0.51-0.2,0.71,0
			l3.25,3.25c0.2,0.2,0.2,0.51,0,0.71C120.5,52.2,120.37,52.25,120.25,52.25z"/>
	</g>
	<g>
		<path fill="#425773" d="M123,52.25c-0.13,0-0.26-0.05-0.35-0.15c-0.2-0.2-0.2-0.51,0-0.71l3.25-3.25c0.2-0.2,0.51-0.2,0.71,0
			s0.2,0.51,0,0.71l-3.25,3.25C123.25,52.2,123.12,52.25,123,52.25z"/>
	</g>
	<g>
		<path fill="#425773" d="M117,58.25c-0.13,0-0.26-0.05-0.35-0.15c-0.2-0.2-0.2-0.51,0-0.71l3.25-3.25c0.2-0.2,0.51-0.2,0.71,0
			s0.2,0.51,0,0.71l-3.25,3.25C117.25,58.2,117.12,58.25,117,58.25z"/>
	</g>
	<g>
		<path fill="#425773" d="M126.25,58.25c-0.13,0-0.26-0.05-0.35-0.15l-3.25-3.25c-0.2-0.2-0.2-0.51,0-0.71s0.51-0.2,0.71,0
			l3.25,3.25c0.2,0.2,0.2,0.51,0,0.71C126.5,58.2,126.37,58.25,126.25,58.25z"/>
	</g>
</g>
<g>
	<g>
		<path fill="#425773" d="M92.25,4.25c-0.13,0-0.26-0.05-0.35-0.15l-3.25-3.25c-0.2-0.2-0.2-0.51,0-0.71s0.51-0.2,0.71,0L92.6,3.4
			c0.2,0.2,0.2,0.51,0,0.71C92.5,4.2,92.37,4.25,92.25,4.25z"/>
	</g>
	<g>
		<path fill="#425773" d="M95,4.25c-0.13,0-0.26-0.05-0.35-0.15c-0.2-0.2-0.2-0.51,0-0.71l3.25-3.25c0.2-0.2,0.51-0.2,0.71,0
			s0.2,0.51,0,0.71L95.35,4.1C95.25,4.2,95.12,4.25,95,4.25z"/>
	</g>
	<g>
		<path fill="#425773" d="M89,10.25c-0.13,0-0.26-0.05-0.35-0.15c-0.2-0.2-0.2-0.51,0-0.71l3.25-3.25c0.2-0.2,0.51-0.2,0.71,0
			s0.2,0.51,0,0.71l-3.25,3.25C89.25,10.2,89.12,10.25,89,10.25z"/>
	</g>
	<g>
		<path fill="#425773" d="M98.25,10.25c-0.13,0-0.26-0.05-0.35-0.15l-3.25-3.25c-0.2-0.2-0.2-0.51,0-0.71s0.51-0.2,0.71,0L98.6,9.4
			c0.2,0.2,0.2,0.51,0,0.71C98.5,10.2,98.37,10.25,98.25,10.25z"/>
	</g>
</g>
<g>
	<g>
		<g>
			<path fill="#425773" d="M52.25,82.25c-0.13,0-0.26-0.05-0.35-0.15l-3.25-3.25c-0.2-0.2-0.2-0.51,0-0.71s0.51-0.2,0.71,0
				l3.25,3.25c0.2,0.2,0.2,0.51,0,0.71C52.5,82.2,52.37,82.25,52.25,82.25z"/>
		</g>
	</g>
	<g>
		<g>
			<path fill="#425773" d="M55,82.25c-0.13,0-0.26-0.05-0.35-0.15c-0.2-0.2-0.2-0.51,0-0.71l3.25-3.25c0.2-0.2,0.51-0.2,0.71,0
				s0.2,0.51,0,0.71l-3.25,3.25C55.25,82.2,55.12,82.25,55,82.25z"/>
		</g>
	</g>
	<g>
		<g>
			<path fill="#425773" d="M49,88.25c-0.13,0-0.26-0.05-0.35-0.15c-0.2-0.2-0.2-0.51,0-0.71l3.25-3.25c0.2-0.2,0.51-0.2,0.71,0
				s0.2,0.51,0,0.71l-3.25,3.25C49.25,88.2,49.12,88.25,49,88.25z"/>
		</g>
	</g>
	<g>
		<g>
			<path fill="#425773" d="M58.25,88.25c-0.13,0-0.26-0.05-0.35-0.15l-3.25-3.25c-0.2-0.2-0.2-0.51,0-0.71s0.51-0.2,0.71,0
				l3.25,3.25c0.2,0.2,0.2,0.51,0,0.71C58.5,88.2,58.37,88.25,58.25,88.25z"/>
		</g>
	</g>
</g>
<g>
	<g>
		<path fill="#425773" d="M32.25,19.25c-0.13,0-0.26-0.05-0.35-0.15l-3.25-3.25c-0.2-0.2-0.2-0.51,0-0.71s0.51-0.2,0.71,0l3.25,3.25
			c0.2,0.2,0.2,0.51,0,0.71C32.5,19.2,32.37,19.25,32.25,19.25z"/>
	</g>
	<g>
		<path fill="#425773" d="M35,19.25c-0.13,0-0.26-0.05-0.35-0.15c-0.2-0.2-0.2-0.51,0-0.71l3.25-3.25c0.2-0.2,0.51-0.2,0.71,0
			s0.2,0.51,0,0.71l-3.25,3.25C35.25,19.2,35.12,19.25,35,19.25z"/>
	</g>
	<g>
		<path fill="#425773" d="M29,25.25c-0.13,0-0.26-0.05-0.35-0.15c-0.2-0.2-0.2-0.51,0-0.71l3.25-3.25c0.2-0.2,0.51-0.2,0.71,0
			s0.2,0.51,0,0.71l-3.25,3.25C29.25,25.2,29.12,25.25,29,25.25z"/>
	</g>
	<g>
		<path fill="#425773" d="M38.25,25.25c-0.13,0-0.26-0.05-0.35-0.15l-3.25-3.25c-0.2-0.2-0.2-0.51,0-0.71s0.51-0.2,0.71,0l3.25,3.25
			c0.2,0.2,0.2,0.51,0,0.71C38.5,25.2,38.37,25.25,38.25,25.25z"/>
	</g>
</g>
<g>
	<path fill="#589FEC" d="M10,16.81c-0.06,0-0.13-0.01-0.19-0.04c-0.19-0.08-0.31-0.26-0.31-0.46V4.75c0-0.2,0.12-0.38,0.3-0.46
		c0.18-0.08,0.39-0.04,0.54,0.09l6.06,5.58c0.1,0.09,0.16,0.22,0.16,0.36s-0.05,0.27-0.15,0.36l-6.06,5.99
		C10.26,16.76,10.13,16.81,10,16.81z M10.5,5.89v9.22l4.83-4.78L10.5,5.89z"/>
</g>
<g>
	<path fill="#425773" d="M101.35,29.65c-0.25-0.25-0.53-0.53-13.7-0.53c-14.65,0-36.45,0.38-36.67,0.38c-0.27,0-0.48,0.22-0.49,0.48
		c-0.15,4.93-0.3,10.18-0.39,15.09l-22.86-0.32c-0.25-0.02-0.5,0.22-0.51,0.49s0.22,0.5,0.49,0.51l22.85,0.32
		c-0.04,2.51-0.07,4.92-0.08,7.13l-17.89,0.22c-0.28,0-0.5,0.23-0.49,0.51c0,0.27,0.23,0.49,0.5,0.49c0,0,0,0,0.01,0l17.88-0.22
		c0,6.3,0.18,10.8,0.68,11.2c0.26,0.21,0.66,0.52,13.8,0.52c14.65,0,36.3-0.41,36.52-0.41c0.27,0,0.48-0.22,0.49-0.49
		C101.89,49.34,102.18,30.48,101.35,29.65z M51.11,46.08l7.12,0.1c0,0,0,0,0.01,0c0.27,0,0.5-0.22,0.5-0.49
		c0-0.28-0.22-0.5-0.49-0.51l-7.12-0.1c0.08-4.77,0.2-9.71,0.33-13.91L67.79,47.5L51.25,64.04C50.97,61.72,50.98,54.23,51.11,46.08z
		 M64.49,64.91c-8.07,0-11.25-0.13-12.47-0.22L68.5,48.21l6.56,6.56c0.1,0.1,0.23,0.15,0.35,0.15c0.12,0,0.25-0.05,0.34-0.14
		l7.34-6.95c0.02,0.04,0.04,0.08,0.08,0.12l16.57,16.57C94.93,64.61,77.11,64.91,64.49,64.91z M100.52,63.89L83.88,47.24
		c-0.03-0.03-0.06-0.04-0.1-0.07L94.8,36.74c0.2-0.19,0.21-0.51,0.02-0.71c-0.19-0.2-0.51-0.21-0.71-0.02L75.42,53.72L52.18,30.48
		c4.73-0.08,22.78-0.36,35.47-0.36c9.65,0,12.31,0.16,12.96,0.28C101.09,32.57,100.83,51.02,100.52,63.89z"/>
	<path fill="#425773" d="M32.35,37.13l14.11,0.75c0.01,0,0.02,0,0.03,0c0.26,0,0.48-0.21,0.5-0.47c0.01-0.28-0.2-0.51-0.47-0.53
		L32.4,36.13c-0.26-0.01-0.51,0.2-0.53,0.47C31.86,36.88,32.08,37.12,32.35,37.13z"/>
	<path fill="#425773" d="M46.46,63.28l-8,0.4c-0.26,0.01-0.49,0.25-0.48,0.52c0.01,0.28,0.25,0.49,0.52,0.48l8-0.4
		c0.01,0,0.02,0,0.03,0c0.26-0.03,0.46-0.25,0.45-0.52C46.97,63.49,46.74,63.27,46.46,63.28z"/>
	<path fill="#425773" d="M28,53.47l-8.62,0.1c-0.28,0-0.5,0.23-0.49,0.51c0,0.27,0.23,0.49,0.5,0.49c0,0,0,0,0.01,0l8.62-0.1
		c0.28,0,0.5-0.23,0.49-0.51C28.5,53.68,28.25,53.44,28,53.47z"/>
</g>
<g>
	<g>
		<path fill="#589FEC" d="M97.58,19.05c-0.27,0-0.49-0.21-0.5-0.48c-0.01-0.28,0.2-0.51,0.48-0.52c0.66-0.03,16.09-0.68,20.81-0.38
			c0.28,0.02,0.49,0.25,0.47,0.53c-0.02,0.27-0.23,0.48-0.53,0.47c-4.67-0.29-20.55,0.38-20.71,0.38
			C97.59,19.05,97.59,19.05,97.58,19.05z"/>
	</g>
</g>
<g>
	<path fill="#589FEC" d="M137.26,80.62L137.26,80.62l-3.67-0.01c-0.28,0-0.5-0.23-0.5-0.5c0-0.28,0.22-0.5,0.5-0.5h0l3.67,0.01
		c0.28,0,0.5,0.23,0.5,0.5C137.76,80.4,137.54,80.62,137.26,80.62z"/>
</g>
<g>
	<path fill="#589FEC" d="M131.43,80.61L131.43,80.61l-9.37-0.02c-0.28,0-0.5-0.23-0.5-0.5c0-0.28,0.22-0.5,0.5-0.5h0l9.37,0.02
		c0.28,0,0.5,0.23,0.5,0.5C131.93,80.39,131.71,80.61,131.43,80.61z"/>
</g>
<g>
	<path fill="#589FEC" d="M119.31,80.58L119.31,80.58l-9.5-0.02c-0.28,0-0.5-0.22-0.5-0.5s0.22-0.5,0.5-0.5h0l9.5,0.02
		c0.28,0,0.5,0.22,0.5,0.5S119.59,80.58,119.31,80.58z"/>
</g>
<g>
	<path fill="#589FEC" d="M106.14,80.54L106.14,80.54L87.4,80.5c-0.28,0-0.5-0.23-0.5-0.5c0-0.28,0.22-0.5,0.5-0.5h0l18.74,0.05
		c0.28,0,0.5,0.23,0.5,0.5C106.64,80.32,106.42,80.54,106.14,80.54z"/>
</g>
<g>
	<path fill="#589FEC" d="M113.54,85.35C113.54,85.35,113.54,85.35,113.54,85.35c-0.19,0-17.9-0.26-18.15-0.26
		c-0.28,0-0.5-0.22-0.5-0.5c0-0.28,0.22-0.5,0.5-0.5c0.2,0,17.42,0.25,18.16,0.26c0.28,0,0.5,0.23,0.49,0.51
		C114.04,85.13,113.82,85.35,113.54,85.35z"/>
</g>
</svg>
