<svg xmlns="http://www.w3.org/2000/svg" id="img_lvls" width="98.13" height="93.01">
	<path fill="#03AB81" d="M96.63 87.98H80.52c-.83 0-1.5-.67-1.5-1.5v-7.51H63.01c-.83 0-1.5-.67-1.5-1.5s.67-1.5 1.5-1.5h17.51c.83 0 1.5.67 1.5 1.5v7.51h14.61c.83 0 1.5.67 1.5 1.5s-.67 1.5-1.5 1.5zM67.57 72.01H30.46c-.63 0-1.2-.4-1.41-1l-4.97-14c-.16-.46-.09-.97.19-1.37.28-.4.74-.63 1.23-.63h46.98c.49 0 .94.24 1.22.63s.35.9.19 1.36l-4.9 14c-.22.61-.79 1.01-1.42 1.01zm-36.05-3H66.5l3.85-11H27.61l3.91 11z"/><path fill="#03AB81" d="M61.51 66.01H36.53c-.83 0-1.5-.67-1.5-1.5s.67-1.5 1.5-1.5h24.98c.83 0 1.5.67 1.5 1.5s-.67 1.5-1.5 1.5zM17.61 87.98H1.5c-.83 0-1.5-.67-1.5-1.5s.67-1.5 1.5-1.5h14.61v-7.51c0-.83.67-1.5 1.5-1.5H35.5c.83 0 1.5.67 1.5 1.5s-.67 1.5-1.5 1.5H19.11v7.51c0 .83-.67 1.5-1.5 1.5zM36.52 45.41l12.3-5.87c.2-.1.44-.1.65 0l12.27 5.87c.77.43 1.09.21 1.14.16s.06-.33-.05-.76c-.27-1.1-1.56-2.89-5.19-5.09-3.34-2.03-7.6-4.22-7.64-4.25-.49-.24-1.16-.25-1.7.01l-8.63 4.12c-.25.12-.56.09-.78-.08-.22-.17-.33-.46-.28-.73l1.59-8.38c.13-.66-.11-1.36-.62-1.81l-6.48-5.72c-.22-.19-.31-.5-.22-.78s.33-.49.62-.53l9.17-1.22c.62-.08 1.17-.46 1.47-1l.08-.16c.63-1.25 1.27-3.21-.47-5.93-.17-.27-.31-.34-.36-.34-.07 0-.2.09-.29.26-.24.48-.91 1.62-1.6 2.78l-.21.36c-.12.2-.32.34-.55.37l-13.62 1.82c-.76.1-1.4.63-1.62 1.36-.22.72 0 1.51.57 2.01l9.75 8.6c.2.17.29.44.24.7l-2.3 12.12c-.14.72.14 1.45.74 1.9.54.44 1.36.53 2.02.21zM72.78 19.87c-.22-.73-.86-1.26-1.62-1.36L57.5 16.69c-.28-.04-.51-.22-.6-.48v-.01L50.49 4.42c-.56-1.06-.82-.79-.82-.79.02.02-.21.07-.38.64-.31 1-.49 3.26 1.15 7.14 1.35 3.21 3.21 6.96 3.6 7.73.07.09.12.19.15.3.31.5.83.83 1.42.91l9.17 1.22c.29.04.53.24.62.53s0 .59-.22.78L58.7 28.6c-.51.45-.75 1.14-.62 1.8.03.16.51 3.11 4.2 4.3.21.07.43.12.51.02.04-.06.07-.2.03-.36-.19-.75-.57-3.11-.59-3.21-.04-.25.05-.51.24-.68l9.74-8.61c.57-.48.8-1.27.57-1.99zM19.98 47H18v-2.01h-1.02V47h-1.96v1.01h1.96v2H18v-2h1.98z"/><circle fill="#03AB81" cx="25.01" cy="2" r="2"/><path fill="#03AB81" d="M90.01 6.99H87V4.01h-2v2.98h-3v2h3v3h2v-3h3.01z"/><circle fill="#03AB81" cx="85.01" cy="35.02" r="2"/><path fill="#03AB81" d="M70.39 7.18c-1.65 0-3-1.35-3-3s1.35-3 3-3 3 1.35 3 3-1.35 3-3 3zm0-5c-1.1 0-2 .9-2 2s.9 2 2 2 2-.9 2-2-.9-2-2-2zM22.53 41.98c-.17 0-.34-.02-.51-.05-1.35-.28-2.22-1.6-1.95-2.95.27-1.32 1.62-2.22 2.95-1.95.65.13 1.22.51 1.58 1.07.37.56.5 1.23.36 1.88-.22 1.16-1.25 2-2.43 2zm-.01-4c-.71 0-1.32.5-1.47 1.2-.16.81.36 1.6 1.17 1.77.8.16 1.61-.37 1.77-1.17.08-.39 0-.79-.22-1.13-.22-.33-.56-.56-.95-.64-.09-.02-.2-.03-.3-.03z"/><circle fill="#03AB81" cx="75.52" cy="10.51" r="1.5"/><path fill="#03AB81" d="M82.99 40.2c-.06-.22-.25-.38-.49-.37l-3.1.05-1.6-2.65c-.12-.2-.35-.29-.57-.23-.22.06-.37.27-.37.5l.05 3.1-2.66 1.6c-.2.12-.29.35-.23.57s.26.37.49.37l3.1-.05 1.6 2.65c.09.15.26.25.43.25.05 0 .09-.01.14-.02.22-.06.37-.27.37-.5l-.05-3.1 2.66-1.6c.2-.12.29-.35.23-.57zM18.6 7.52l-2.78-1.16-.39-2.99c-.03-.22-.2-.4-.42-.42-.21-.03-.43.09-.52.3l-1.16 2.78-2.99.39c-.22.03-.39.2-.42.42-.04.21.08.43.28.51l2.78 1.16.39 2.99c.03.22.2.4.42.42h.07c.2 0 .38-.12.45-.3l1.17-2.78 2.99-.39c.22-.03.4-.2.42-.42.04-.21-.09-.42-.29-.51zM46.01 89.01H27.02c-.55 0-1-.45-1-1s.45-1 1-1h18.99c.55 0 1 .45 1 1s-.45 1-1 1z"/><g><path fill="#03AB81" d="M75.01 93.01h-28c-.55 0-1-.45-1-1s.45-1 1-1h28c.55 0 1 .45 1 1s-.45 1-1 1z"/></g><g><path fill="#03AB81" d="M55.03 89.01h-5c-.55 0-1-.45-1-1s.45-1 1-1h5c.55 0 1 .45 1 1s-.44 1-1 1z"/></g><g>
	<path fill="#03AB81" d="M70.99 89.01H59c-.55 0-1-.45-1-1s.45-1 1-1h11.99c.55 0 1 .45 1 1s-.44 1-1 1z"/></g></svg>