<svg xmlns="http://www.w3.org/2000/svg" width="21.5" height="15.96" viewBox="0 0 21.5 15.96" id="information"><g fill="#212529"><path d="M21.08 7.03c-.39-.39-.67-.65-.67-.65-.53-.53-1.6-.52-2.19.08l-1.05 1.06-5.04 5.07c-.07.07-.12.16-.14.25l-.51 2.54c-.03.16.02.33.14.45.14.15.42.14.45.14l2.58-.51c.1-.02.18-.07.25-.14l6.1-6.05c.74-.74.56-1.76.08-2.24zm-6.76 7.47l-1.7.34.33-1.66 4.58-4.61 1.38 1.38-4.59 4.55zm5.99-5.95l-.69.69-1.38-1.38.7-.7c.34-.32.73-.12.78-.07l.66.65c.08.09.26.5-.07.81zM11.81 9.63c-1.05-1.02-2.73-1.61-4.61-1.65 2.12-.1 3.82-1.84 3.82-3.98 0-2.21-1.79-4-4-4s-4 1.79-4 4c0 2.15 1.7 3.89 3.83 3.98-3.79.09-6.85 2.98-6.85 6.52 0 .28.22.5.5.5s.5-.22.5-.5c0-3.05 2.7-5.53 6.02-5.53 1.7 0 3.19.5 4.1 1.37.2.19.52.19.71-.01.18-.19.18-.51-.02-.7zm-7.79-5.63c0-1.65 1.35-3 3-3s3 1.35 3 3-1.35 3-3 3-3-1.35-3-3z"/></g></svg>