<svg version="1.1" xmlns="http://www.w3.org/2000/svg" xmlns:xlink="http://www.w3.org/1999/xlink">
<g id="interests" viewBox="0 0 16.98 15.96"><path d="M11.45 2.46c-.28 0-.5.22-.5.5s.22.5.5.5c1.1 0 2 .93 2 2.08 0 .28.22.5.5.5s.5-.22.5-.5c0-1.7-1.35-3.08-3-3.08zm.53-2.46c-1.3 0-2.57.53-3.49 1.44-.94-.93-2.17-1.44-3.49-1.44-2.76 0-5 2.28-5 5.08 0 1.31.33 2.3 1.06 3.12l7.08 7.59c.09.1.23.16.37.16.14 0 .27-.06.37-.16l7.05-7.6c.72-.82 1.05-1.81 1.05-3.11 0-2.8-2.25-5.08-5-5.08zm3.2 7.53l-6.67 7.2-6.71-7.19c-.55-.64-.8-1.39-.8-2.46 0-2.25 1.79-4.08 4-4.08 1.05 0 2.04.41 2.79 1.15l-1.23 1.26c-.19.2-.19.51.01.71.2.19.51.19.71-.01l1.79-1.83c.76-.82 1.79-1.28 2.91-1.28 2.21 0 4 1.83 4 4.08 0 1.05-.26 1.83-.8 2.45z"/></g></svg>