<svg version="1.1" xmlns="http://www.w3.org/2000/svg" xmlns:xlink="http://www.w3.org/1999/xlink">
<g id="knowledge" viewBox="0 0 18.98 16"><path d="M6.46 0c-1.13 0-2.18.92-2.42 2.03-.4.05-.97.2-1.42.63-.4.41-.61.96-.64 1.64-.99.32-1.77 1.15-1.94 2.22-.12.74.05 1.48.49 2.08.23.32.52.57.84.77-.4.4-.64.92-.64 1.48 0 1.18 1.02 2.14 2.28 2.14h.03c-.19.72.62 3.01 2.96 3.01 1.61 0 2.98-1.29 2.98-2.82v-10.81c0-1.26-1.18-2.37-2.52-2.37zm1.52 13.18c0 .99-.91 1.82-1.98 1.82s-1.98-.83-1.98-1.82c0-1 .84-1.82 1.88-1.82.28 0 .5-.22.5-.5s-.22-.5-.5-.5c-1.15 0-2.14.67-2.6 1.63-.02 0-1.47.15-1.57-1.15-.03-.36.35-1 .9-1.11.01.01.37-.09.37-.45s-.39-.51-.42-.52c-1.54-.28-1.63-1.61-1.56-2.07.16-.99 1.13-1.67 2.15-1.51 1.19.19 1.8.97 1.8 2.33.01.27.23.49.51.49s.5-.22.5-.5c0-1.85-1.08-3.26-2.96-3.33.07-1.25 1.44-1.16 1.44-1.16.14.01.28-.04.38-.13.1-.09.16-.23.16-.37-.01-.76.72-1.51 1.46-1.51.79 0 1.52.65 1.52 1.37v10.81zm10.46-4.58c.44-.61.62-1.34.5-2.08-.17-1.07-.95-1.9-1.94-2.22-.03-.68-.23-1.23-.64-1.63-.45-.44-1.02-.59-1.42-.63-.24-1.12-1.29-2.04-2.42-2.04-1.34 0-2.52 1.11-2.52 2.37v10.82c0 1.53 1.36 2.82 2.98 2.82 2.34 0 3.15-2.29 2.96-3.01h.03c1.26 0 2.28-.96 2.28-2.14 0-.56-.24-1.08-.64-1.48.32-.2.6-.46.83-.78zm-2.04.16c-.02 0-.42.15-.42.51l.36.46c.55.12.93.75.9 1.11-.1 1.3-1.55 1.15-1.57 1.15-.46-.96-1.45-1.63-2.6-1.63-.28 0-.5.22-.5.5s.22.5.5.5c1.04 0 1.88.81 1.88 1.82 0 .98-.91 1.82-1.98 1.82s-1.97-.83-1.97-1.82v-10.81c0-.72.72-1.37 1.52-1.37.74 0 1.47.75 1.47 1.52 0 .14.06.27.16.37.1.09.24.14.38.13 0 0 1.37-.1 1.44 1.16-1.89.06-2.97 1.48-2.97 3.32 0 .28.23.5.5.5s.5-.22.5-.5c0-1.36.61-2.14 1.8-2.33 1.02-.16 1.99.52 2.15 1.51.08.47-.01 1.8-1.55 2.08z"/></g></svg>