<svg xmlns="http://www.w3.org/2000/svg" width="33.01" height="24.03" viewBox="0 0 33.01 24.03"><path d="M13 16.96c2.64-1.66 5.25-3.3 7.91-4.97-2.67-1.67-5.27-3.31-7.91-4.96v9.93zm20.01-9.39c-.09-3.98-1.61-6.29-4.5-6.89-2.48-.5-7.95-.68-12.24-.68-4.19 0-9.49.18-11.77.69-2.9.64-4.41 2.95-4.5 6.87v8.91c.09 3.92 1.6 6.23 4.49 6.87 2.29.51 7.58.69 11.78.69 4.29 0 9.76-.18 12.23-.68 2.9-.59 4.41-2.91 4.5-6.88v-8.75l.01-.15zm-1 8.87c-.03 1.29-.12 5.2-3.7 5.93-1.98.4-6.7.67-12.03.67-5.28 0-9.71-.25-11.56-.66-3.6-.79-3.68-4.65-3.71-5.92v-8.87c.03-1.27.11-5.12 3.71-5.92 1.84-.42 6.27-.67 11.55-.67 5.33 0 10.06.26 12.03.66 3.58.73 3.67 4.64 3.7 5.93v8.7l.01.15z" fill="#879196"/></svg>