<svg xmlns="http://www.w3.org/2000/svg" id="load-photo" width="21.97" height="20.03" viewBox="0 0 21.97 20.03"><g fill="#22B37F"><path d="M17.05 15.21l-.14-.07c-1.92-.95-2.62-1.78-2.85-2.12.22-.4.67-1.25 1.13-2.33.11-.25-.01-.55-.27-.66-.26-.11-.55.01-.66.27-.6 1.43-1.21 2.45-1.21 2.46-.07.12-.09.28-.04.41.05.14.54 1.42 3.46 2.87l.14.07c1.73.86 3.37 1.68 3.37 3.42 0 .28.22.5.5.5s.5-.22.5-.5c-.01-2.36-2.09-3.4-3.93-4.32zM12.63.32c-.63-.22-1.32-.32-2.11-.32-.94 0-2.7.21-3.98 1.61-1.2 1.31-1.7 3.32-1.47 5.98.23 2.75 1.39 4.75 1.85 5.45-.25.36-.96 1.18-2.83 2.11l-.15.08c-1.85.91-3.94 1.94-3.94 4.3 0 .28.22.5.5.5s.5-.22.5-.5c0-1.74 1.64-2.55 3.37-3.41l.15-.08c2.92-1.45 3.4-2.75 3.45-2.89.06-.15.03-.32-.07-.45-.02-.02-1.58-2.11-1.84-5.2-.2-2.37.21-4.13 1.21-5.22 1.03-1.11 2.48-1.28 3.25-1.28.68 0 1.27.09 1.8.26.26.09.55-.05.63-.31.09-.26-.05-.55-.32-.63zM21.83 3.15l-2.99-3c-.2-.2-.51-.2-.71 0l-3.03 3.01c-.2.19-.2.51 0 .71.1.1.23.15.35.15s.25-.05.35-.15l2.16-2.15v7.8c0 .28.22.5.5.5s.5-.22.5-.5v-7.82l2.15 2.16c.2.2.51.2.71 0 .2-.2.2-.51.01-.71z"/></g></svg>