<svg xmlns="http://www.w3.org/2000/svg" width="15.97" height="20" viewBox="0 0 15.97 20" id="points_levels"><path fill="#212529" d="M15.83 2.72l-2.46-2.57c-.1-.09-.23-.15-.37-.15h-10.03c-.13 0-.26.05-.36.15l-2.47 2.52c-.15.15-.19.39-.09.58l1.77 3.48c.13.24.43.34.68.22.25-.12.34-.43.22-.67l-1.61-3.17 1.56-1.59 1.88 3.7c.08.18.26.28.44.28l.23-.05c.25-.12.34-.43.22-.67l-.4-.79h5.94l-.4.8c-.12.25-.03.55.22.67.07.04.15.05.22.05.18 0 .36-.1.45-.28l1.85-3.68 1.54 1.61-1.54 3.12c-.12.25-.02.55.23.67l.22.05c.18 0 .36-.1.45-.28l1.7-3.43c.09-.19.05-.42-.09-.57zm-4.35.26h-6.96l-1-1.98h8.96l-1 1.98zm-3.49 3.02c-3.86 0-7 3.14-7 7s3.14 7 7 7 7-3.14 7-7-3.14-7-7-7zm0 13c-3.31 0-6-2.69-6-6s2.69-6 6-6 6 2.69 6 6-2.69 6-6 6zm1.56-8.12l-1.12-2.09c-.17-.33-.71-.33-.88 0l-1.12 2.09-2.51.37c-.19.03-.34.16-.4.34s-.02.38.12.51l1.81 1.77-.43 2.49c-.03.19.05.38.21.49.09.06.19.09.29.09.09 0 .17-.02.25-.07l2.22-1.27 2.22 1.27c.08.04.16.07.25.07h.02c.28 0 .5-.22.5-.5l-.05-.22-.41-2.36 1.81-1.77c.14-.13.19-.33.13-.51s-.21-.31-.4-.34l-2.51-.36zm.09 2.45c-.12.12-.17.28-.14.44l.29 1.71-1.56-.88c-.15-.09-.34-.09-.5 0l-1.55.89.29-1.71c.03-.16-.03-.33-.14-.44l-1.27-1.24 1.76-.26c.16-.02.29-.12.37-.26l.8-1.49.8 1.49c.07.14.21.24.37.26l1.76.26-1.28 1.23z"/></svg>