<svg version="1.1" xmlns="http://www.w3.org/2000/svg" xmlns:xlink="http://www.w3.org/1999/xlink">

<g id="glass_search_desktop" width="16" height="16">
<path fill="#40616D" d="M15.71 14.296l-3.899-3.936-.059-.039c.771-1.072 1.229-2.383 1.229-3.802 0-3.595-2.912-6.519-6.49-6.519-3.579 0-6.491 2.924-6.491 6.519 0 3.594 2.912 6.519 6.491 6.519 1.455 0 2.794-.489 3.877-1.304l.022.034 3.899 3.936c.196.197.453.296.711.296.254 0 .509-.097.704-.29.392-.389.395-1.022.006-1.414zm-9.219-3.258c-2.476 0-4.491-2.027-4.491-4.519s2.015-4.519 4.491-4.519 4.491 2.027 4.491 4.519-2.015 4.519-4.491 4.519z"/>
</g>

<g id="glass_search_channel" width="16" height="16">
<path fill="#B9C3C8" d="M15.71 14.296l-3.899-3.936-.059-.039c.771-1.072 1.229-2.383 1.229-3.802 0-3.595-2.912-6.519-6.49-6.519-3.579 0-6.491 2.924-6.491 6.519 0 3.594 2.912 6.519 6.491 6.519 1.455 0 2.794-.489 3.877-1.304l.022.034 3.899 3.936c.196.197.453.296.711.296.254 0 .509-.097.704-.29.392-.389.395-1.022.006-1.414zm-9.219-3.258c-2.476 0-4.491-2.027-4.491-4.519s2.015-4.519 4.491-4.519 4.491 2.027 4.491 4.519-2.015 4.519-4.491 4.519z"/>
</g>

<g id="glass_search" width="16" height="16">
<path fill="#fff" d="M15.71 14.296l-3.899-3.936-.059-.039c.771-1.072 1.229-2.383 1.229-3.802 0-3.595-2.912-6.519-6.49-6.519-3.579 0-6.491 2.924-6.491 6.519 0 3.594 2.912 6.519 6.491 6.519 1.455 0 2.794-.489 3.877-1.304l.022.034 3.899 3.936c.196.197.453.296.711.296.254 0 .509-.097.704-.29.392-.389.395-1.022.006-1.414zm-9.219-3.258c-2.476 0-4.491-2.027-4.491-4.519s2.015-4.519 4.491-4.519 4.491 2.027 4.491 4.519-2.015 4.519-4.491 4.519z"/>
</g>

<g id="glass_search_index_main" width="16" height="16">
<path fill="#879196" d="M15.71 14.296l-3.899-3.936-.059-.039c.771-1.072 1.229-2.383 1.229-3.802 0-3.595-2.912-6.519-6.49-6.519-3.579 0-6.491 2.924-6.491 6.519 0 3.594 2.912 6.519 6.491 6.519 1.455 0 2.794-.489 3.877-1.304l.022.034 3.899 3.936c.196.197.453.296.711.296.254 0 .509-.097.704-.29.392-.389.395-1.022.006-1.414zm-9.219-3.258c-2.476 0-4.491-2.027-4.491-4.519s2.015-4.519 4.491-4.519 4.491 2.027 4.491 4.519-2.015 4.519-4.491 4.519z"/>
</g>


<g id="close-win-search" width="8" height="14">
<path fill="#173B3E" d="M7.002 13.992c-.255 0-.51-.097-.704-.29l-6-5.97c-.189-.187-.295-.442-.296-.708s.104-.521.291-.709l5.985-6.028c.388-.392 1.021-.394 1.413-.004.392.39.394 1.023.004 1.416l-5.279 5.318 5.291 5.263c.393.39.394 1.022.005 1.417-.196.197-.452.295-.71.295z"/>
</g>

<g id="btn-burger" width="19" height="16">
<path fill="#fff" d="M1 8m0 5.999"/>
<path fill="#fff" d="M18.001 2h-17.001c-.552 0-1-.448-1-1s.448-1 1-1h17.001c.553 0 1 .448 1 1s-.447 1-1 1zm0 7h-17.001c-.552 0-1-.448-1-1s.448-1 1-1h17.001c.553 0 1 .448 1 1s-.447 1-1 1zm0 7h-17.001c-.552 0-1-.447-1-1s.448-1 1-1h17.001c.553 0 1 .447 1 1s-.447 1-1 1z"/>
</g>


<g id="btn-burger_main_index" width="19" height="16">
<path fill="#879195" d="M1 8m0 5.999"/>
<path fill="#879196" d="M18.001 2h-17.001c-.552 0-1-.448-1-1s.448-1 1-1h17.001c.553 0 1 .448 1 1s-.447 1-1 1zm0 7h-17.001c-.552 0-1-.448-1-1s.448-1 1-1h17.001c.553 0 1 .448 1 1s-.447 1-1 1zm0 7h-17.001c-.552 0-1-.447-1-1s.448-1 1-1h17.001c.553 0 1 .447 1 1s-.447 1-1 1z"/>
</g>

<g id="icon-register" >
<path fill="#22B37F" d="M9.06 8.353l-.999 2.985c-.06.18-.013.377.121.512.095.096.224.146.354.146l.159-.024 3.002-1.002c.074-.025.143-.068.196-.123l5.993-6.06c.193-.196.193-.511-.002-.705l-1.984-1.983c-.094-.094-.22-.146-.354-.146-.133 0-.262.053-.354.147l-6.011 6.06c-.057.054-.098.12-.121.193zm.913.426l5.576-5.619 1.276 1.276-5.56 5.62-1.937.647.645-1.924zm10.901-9.71c-.835-.833-2.055-.641-2.688-.008l-1.016 1.016c-.195.194-.195.511 0 .707l2.034 2.032c.094.094.221.146.354.146h.008c.137-.002.266-.059.357-.158l.958-1.021c.723-.719.856-1.851-.007-2.714zm-.712 2.021l-.616.655-1.313-1.314.662-.662c.252-.251.854-.412 1.272.007.472.471.3 1.009-.005 1.314zm-.205 7.41c-.275 0-.5.224-.5.5v2.907c0 2.489-2.105 4.593-4.546 4.593l-7.934-.006c-2.44 0-4.502-2.104-4.502-4.593v-7.999c0-2.469 1.978-4.404 4.502-4.404h5.98c.276 0 .501-.224.501-.5s-.225-.5-.501-.5h-5.98c-3.085 0-5.503 2.375-5.503 5.404v7.998c0 3.083 2.468 5.592 5.503 5.592l7.934.006c3.033 0 5.547-2.509 5.547-5.592v-2.906c0-.276-.225-.5-.501-.5z"/>
</g>

<g id="icon-enter" width="20" height="19">
<path fill="#22B37F" d="M19.496 19.006c-.276 0-.5-.224-.5-.5 0-1.642-1.591-2.391-3.274-3.184l-.11-.052c-2.835-1.333-3.629-2.207-3.71-2.303-.151-.178-.159-.438-.019-.625.018-.022 1.758-2.372 2.044-5.179.236-2.331-.109-4.028-1.027-5.045-.672-.742-1.645-1.118-2.893-1.118-.829 0-1.995.195-2.844 1.123-.939 1.025-1.31 2.729-1.104 5.062.255 2.893 2.286 5.094 2.307 5.115.176.189.18.481.008.675-.084.094-.905.963-3.729 2.296l-.377.176c-1.681.779-3.268 1.516-3.268 3.059 0 .276-.224.5-.5.5s-.5-.224-.5-.5c0-2.182 2.043-3.13 3.846-3.967l.372-.173c1.722-.812 2.646-1.438 3.083-1.778-.648-.815-2.017-2.808-2.239-5.316-.231-2.624.227-4.584 1.363-5.825 1.096-1.196 2.553-1.447 3.582-1.447 1.521 0 2.777.501 3.634 1.449 1.116 1.235 1.547 3.192 1.28 5.817-.247 2.429-1.44 4.483-1.979 5.302.409.328 1.322.965 3.095 1.799l.11.052c1.804.85 3.849 1.812 3.849 4.088 0 .275-.224.499-.5.499z"/>
</g>

<g id="profile" width="36" height="36">
<path fill="#D2DCDC" d="M36 17.999c0 9.94-8.057 18.001-17.999 18.001-9.944 0-18.001-8.061-18.001-18.001 0-9.938 8.057-17.999 18.001-17.999 9.942 0 17.999 8.061 17.999 17.999z"/><path fill="#fff" d="M29.418 28.48c-.275 0-.5-.225-.5-.5 0-1.918-1.789-2.795-3.684-3.725l-.42-.205c-3.258-1.613-4.15-2.688-4.188-2.732-.141-.172-.148-.414-.023-.598.021-.027 1.941-2.858 2.271-6.25.271-2.783-.167-4.825-1.298-6.069-1.051-1.157-2.514-1.4-3.554-1.4-1.029 0-2.479.244-3.547 1.404-1.144 1.243-1.606 3.273-1.374 6.035.296 3.518 2.296 6.237 2.316 6.264.139.188.131.443-.02.621-.038.045-.962 1.113-4.214 2.727l-.527.258c-1.901.924-3.697 1.795-3.697 3.672 0 .275-.224.5-.5.5s-.5-.225-.5-.5c0-2.504 2.264-3.603 4.261-4.571l.52-.255c2.113-1.047 3.174-1.838 3.623-2.221-.587-.9-2-3.351-2.257-6.41-.256-3.052.293-5.338 1.634-6.795 1.312-1.428 3.054-1.728 4.283-1.728 1.243 0 2.997.3 4.295 1.728 1.326 1.462 1.85 3.763 1.553 6.838-.288 2.967-1.659 5.462-2.213 6.365.43.375 1.473 1.168 3.604 2.223l.413.205c1.99.975 4.244 2.08 4.244 4.621-.001.274-.226.498-.501.498z"/>
</g>

<g id="icon-fundator" width="19" height="14">
<path fill="#A4ABAF" d="M8.154 12.389c-.121-.078-3.321-.738-4.321-4.363-.686-2.48.485-4.453.807-4.933.126-.125.215-.208.258-.374.15-.522.137-1.01-.041-1.41-.4-.881-1.509-1.181-1.728-1.23l-.354-.079-.16.299c-.094.202-.552 1.23-.114 2.087.184.352.518.605.962.81-.192.398-.416.964-.56 1.662-.117-.195-.261-.361-.428-.489-.329-.249-.757-.373-1.274-.373-.397 0-.729.077-.852.109l-.349.101.015.361c.011.225.115 1.373.92 1.921.362.245.848.348 1.402.293.137-.011.286-.053.442-.114.03.47.107.966.259 1.487l.158.459c-.206-.122-.42-.202-.638-.235l-.228-.019c-.865 0-1.605.672-1.744.807l-.257.253.189.308c.118.188.762 1.135 1.728 1.229.433.037.908-.106 1.359-.415.132-.087.257-.225.379-.383.319.462.67.854 1.033 1.177-.198.021-.392.062-.555.122-.91.343-1.284 1.425-1.348 1.637l-.104.344.305.182c.166.086.738.38 1.39.38.257 0 .463-.047.675-.139.401-.174.708-.512.926-1.014.08-.188.077-.385.047-.576.866.473 1.577.64 1.696.664 0 0 .25-.018.304-.205.053-.189-.199-.341-.199-.341zm8.039-5.735c.166.067.326.116.471.127.557.054 1.04-.049 1.402-.293.804-.548.908-1.695.92-1.921l.014-.361-.35-.101c-.123-.032-.455-.109-.854-.109-.519 0-.942.125-1.272.373-.178.136-.328.312-.449.523-.143-.706-.367-1.28-.562-1.685.457-.206.801-.463.986-.821.438-.857-.02-1.885-.114-2.086l-.16-.3-.354.079c-.219.049-1.328.35-1.729 1.231-.181.4-.192.887-.041 1.41.029.119.084.194.156.273.104.139 1.643 2.27.879 5.032-1 3.625-4.201 4.285-4.322 4.363 0 0-.25.151-.196.344.054.188.304.205.304.205.121-.026.85-.196 1.729-.684-.032.195-.039.4.043.594.219.502.527.842.928 1.014.21.092.417.139.673.139.65 0 1.225-.294 1.391-.383l.306-.18-.104-.348c-.063-.211-.438-1.293-1.349-1.636-.17-.062-.373-.104-.582-.125.368-.329.726-.726 1.046-1.192.127.168.257.311.395.401.449.31.927.452 1.357.415.967-.096 1.609-1.041 1.729-1.229l.189-.309-.256-.253c-.141-.136-.88-.808-1.744-.808l-.229.02c-.231.035-.461.127-.678.264l.168-.486c.152-.523.23-1.024.259-1.497z"/>
<path fill="#869196" d="M11.508 5.394c0 .183-.088.259-.293.259h-1.191v4.315c0 .104-.043.188-.102.25-.058.063-.14.095-.244.095h-.312c-.114 0-.202-.031-.264-.095-.062-.062-.094-.146-.094-.25v-4.315h-.841c-.205 0-.321-.079-.321-.263v-.272c0-.076.021-.131.062-.169.041-.037.116-.072.228-.104l.857-.159c-.203-.342-.394-.712-.421-.922-.028-.208-.042-.408-.042-.597 0-.19.043-.389.127-.596.085-.207.209-.39.371-.549.365-.356.85-.534 1.455-.534.479 0 .891.102 1.236.306.191.116.287.22.287.313 0 .091-.029.179-.088.259l-.234.331c-.064.087-.125.131-.182.131l-.164-.048-.186-.107c-.191-.104-.414-.155-.664-.155-.551 0-.826.345-.826 1.035 0 .333.075.701.225 1.103h1.314c.205 0 .307.089.307.267v.471z"/>
</g>
<g id="icon-fundator_profile">
<path fill="#22B37F" d="M8.154 12.389c-.121-.078-3.321-.738-4.321-4.363-.686-2.48.485-4.453.807-4.933.126-.125.215-.208.258-.374.15-.522.137-1.01-.041-1.41-.4-.881-1.509-1.181-1.728-1.23l-.354-.079-.16.299c-.094.202-.552 1.23-.114 2.087.184.352.518.605.962.81-.192.398-.416.964-.56 1.662-.117-.195-.261-.361-.428-.489-.329-.249-.757-.373-1.274-.373-.397 0-.729.077-.852.109l-.349.101.015.361c.011.225.115 1.373.92 1.921.362.245.848.348 1.402.293.137-.011.286-.053.442-.114.03.47.107.966.259 1.487l.158.459c-.206-.122-.42-.202-.638-.235l-.228-.019c-.865 0-1.605.672-1.744.807l-.257.253.189.308c.118.188.762 1.135 1.728 1.229.433.037.908-.106 1.359-.415.132-.087.257-.225.379-.383.319.462.67.854 1.033 1.177-.198.021-.392.062-.555.122-.91.343-1.284 1.425-1.348 1.637l-.104.344.305.182c.166.086.738.38 1.39.38.257 0 .463-.047.675-.139.401-.174.708-.512.926-1.014.08-.188.077-.385.047-.576.866.473 1.577.64 1.696.664 0 0 .25-.018.304-.205.053-.189-.199-.341-.199-.341zm8.039-5.735c.166.067.326.116.471.127.557.054 1.04-.049 1.402-.293.804-.548.908-1.695.92-1.921l.014-.361-.35-.101c-.123-.032-.455-.109-.854-.109-.519 0-.942.125-1.272.373-.178.136-.328.312-.449.523-.143-.706-.367-1.28-.562-1.685.457-.206.801-.463.986-.821.438-.857-.02-1.885-.114-2.086l-.16-.3-.354.079c-.219.049-1.328.35-1.729 1.231-.181.4-.192.887-.041 1.41.029.119.084.194.156.273.104.139 1.643 2.27.879 5.032-1 3.625-4.201 4.285-4.322 4.363 0 0-.25.151-.196.344.054.188.304.205.304.205.121-.026.85-.196 1.729-.684-.032.195-.039.4.043.594.219.502.527.842.928 1.014.21.092.417.139.673.139.65 0 1.225-.294 1.391-.383l.306-.18-.104-.348c-.063-.211-.438-1.293-1.349-1.636-.17-.062-.373-.104-.582-.125.368-.329.726-.726 1.046-1.192.127.168.257.311.395.401.449.31.927.452 1.357.415.967-.096 1.609-1.041 1.729-1.229l.189-.309-.256-.253c-.141-.136-.88-.808-1.744-.808l-.229.02c-.231.035-.461.127-.678.264l.168-.486c.152-.523.23-1.024.259-1.497z"/>
<path fill="#22B37F" d="M11.508 5.394c0 .183-.088.259-.293.259h-1.191v4.315c0 .104-.043.188-.102.25-.058.063-.14.095-.244.095h-.312c-.114 0-.202-.031-.264-.095-.062-.062-.094-.146-.094-.25v-4.315h-.841c-.205 0-.321-.079-.321-.263v-.272c0-.076.021-.131.062-.169.041-.037.116-.072.228-.104l.857-.159c-.203-.342-.394-.712-.421-.922-.028-.208-.042-.408-.042-.597 0-.19.043-.389.127-.596.085-.207.209-.39.371-.549.365-.356.85-.534 1.455-.534.479 0 .891.102 1.236.306.191.116.287.22.287.313 0 .091-.029.179-.088.259l-.234.331c-.064.087-.125.131-.182.131l-.164-.048-.186-.107c-.191-.104-.414-.155-.664-.155-.551 0-.826.345-.826 1.035 0 .333.075.701.225 1.103h1.314c.205 0 .307.089.307.267v.471z"/>
</g>

<g id="level1" width="15" height="14">
	<path fill="#879196" d="M8.859 2.891l-2.843 1.045v.82l2-.703v5.982h.984v-7.144z"/>
	<path fill="#879196" d="M6 0v1h8v3.99c0 3.52-.926 6.092-5.508 7.985-3.992-2.032-5.484-4.735-5.484-5.975h-1c0 1.924 2.126 4.928 6.19 6.947l.107.053h.323l.09-.037c5.214-2.102 6.282-5.108 6.282-8.973v-4.99h-9z"/>
	<path fill="#879196" d="M3 0h-1v2h-2v1h2v2h1v-2h2v-1h-2z"/>
</g>
<g id="level1_profile" width="15" height="14">
	<path fill="#22B37F" d="M8.859 2.891l-2.843 1.045v.82l2-.703v5.982h.984v-7.144z"/>
	<path fill="#879196" d="M6 0v1h8v3.99c0 3.52-.926 6.092-5.508 7.985-3.992-2.032-5.484-4.735-5.484-5.975h-1c0 1.924 2.126 4.928 6.19 6.947l.107.053h.323l.09-.037c5.214-2.102 6.282-5.108 6.282-8.973v-4.99h-9z"/>
	<path fill="#22B37F" d="M3 0h-1v2h-2v1h2v2h1v-2h2v-1h-2z"/>
</g>

<g id="level2" width="15" height="14">
	<path fill="#879196" d="M7.492 9.266l1.904-2.055c.892-.962 1.338-1.792 1.338-2.488 0-.573-.192-1.032-.576-1.378-.385-.344-.907-.517-1.568-.517-.706 0-1.27.2-1.691.603-.422.4-.633.918-.633 1.569h.904c0-.453.124-.798.373-1.052.249-.255.598-.381 1.047-.381.375 0 .674.118.898.354.225.237.338.541.338.91 0 .274-.069.542-.208.799-.14.258-.39.593-.755 1.003l-2.461 2.721v.646h4.598v-.734h-3.508z"/>
	<path fill="#879196" d="M6 0v1h8v3.99c0 3.522-.926 6.093-5.508 7.985-3.992-2.032-5.484-4.734-5.484-5.975h-1c0 1.924 2.126 4.928 6.19 6.947l.107.053h.323l.09-.036c5.214-2.103 6.282-5.109 6.282-8.974v-4.99h-9z"/>
	<path fill="#879196" d="M3 0h-1v2h-2v1h2v2h1v-2h2v-1h-2z"/>
</g>
<g id="level2_profile" width="15" height="14">
	<path fill="#22B37F" d="M7.492 9.266l1.904-2.055c.892-.962 1.338-1.792 1.338-2.488 0-.573-.192-1.032-.576-1.378-.385-.344-.907-.517-1.568-.517-.706 0-1.27.2-1.691.603-.422.4-.633.918-.633 1.569h.904c0-.453.124-.798.373-1.052.249-.255.598-.381 1.047-.381.375 0 .674.118.898.354.225.237.338.541.338.91 0 .274-.069.542-.208.799-.14.258-.39.593-.755 1.003l-2.461 2.721v.646h4.598v-.734h-3.508z"/>
	<path fill="#879196" d="M6 0v1h8v3.99c0 3.522-.926 6.093-5.508 7.985-3.992-2.032-5.484-4.734-5.484-5.975h-1c0 1.924 2.126 4.928 6.19 6.947l.107.053h.323l.09-.036c5.214-2.103 6.282-5.109 6.282-8.974v-4.99h-9z"/>
	<path fill="#22B37F" d="M3 0h-1v2h-2v1h2v2h1v-2h2v-1h-2z"/>
</g>

<g id="level3" width="15" height="14">
	<path fill="#879196" d="M7.771 6.041h.68c.426-.008.762-.119 1.006-.338.244-.217.365-.512.365-.883 0-.834-.414-1.25-1.244-1.25-.391 0-.703.111-.936.334-.233.223-.35.518-.35.887h-.901c0-.564.205-1.031.617-1.404.412-.373.936-.559 1.57-.559.67 0 1.195.178 1.576.531.381.355.572.848.572 1.48 0 .309-.103.607-.303.898-.199.289-.473.506-.816.648.391.125.693.33.907.615.213.287.319.637.319 1.051 0 .637-.209 1.145-.625 1.518-.417.375-.959.562-1.627.562-.667 0-1.21-.182-1.628-.543s-.627-.836-.627-1.428h.908c0 .373.123.674.367.898.244.223.57.336.98.336.437 0 .771-.113 1.002-.344.229-.225.347-.553.347-.978 0-.414-.128-.73-.382-.953-.253-.221-.618-.334-1.097-.342h-.68v-.736z"/>
	<path fill="#879196" d="M8.627 14h-.322l-.105-.053c-4.065-2.019-6.191-5.023-6.191-6.947h1c0 1.241 1.492 3.943 5.483 5.977 4.582-1.894 5.508-4.463 5.508-7.987v-3.99h-8v-1h9v4.99c0 3.866-1.068 6.872-6.283 8.974l-.09.036z"/>
	<path fill="#879196" d="M5 2h-2v-2h-1v2h-2v1h2v2h1v-2h2z"/>
</g>
<g id="level3_profile" width="15" height="14">
	<path fill="#22B37F" d="M7.771 6.041h.68c.426-.008.762-.119 1.006-.338.244-.217.365-.512.365-.883 0-.834-.414-1.25-1.244-1.25-.391 0-.703.111-.936.334-.233.223-.35.518-.35.887h-.901c0-.564.205-1.031.617-1.404.412-.373.936-.559 1.57-.559.67 0 1.195.178 1.576.531.381.355.572.848.572 1.48 0 .309-.103.607-.303.898-.199.289-.473.506-.816.648.391.125.693.33.907.615.213.287.319.637.319 1.051 0 .637-.209 1.145-.625 1.518-.417.375-.959.562-1.627.562-.667 0-1.21-.182-1.628-.543s-.627-.836-.627-1.428h.908c0 .373.123.674.367.898.244.223.57.336.98.336.437 0 .771-.113 1.002-.344.229-.225.347-.553.347-.978 0-.414-.128-.73-.382-.953-.253-.221-.618-.334-1.097-.342h-.68v-.736z"/>
	<path fill="#879196" d="M8.627 14h-.322l-.105-.053c-4.065-2.019-6.191-5.023-6.191-6.947h1c0 1.241 1.492 3.943 5.483 5.977 4.582-1.894 5.508-4.463 5.508-7.987v-3.99h-8v-1h9v4.99c0 3.866-1.068 6.872-6.283 8.974l-.09.036z"/>
	<path fill="#22B37F" d="M5 2h-2v-2h-1v2h-2v1h2v2h1v-2h2z"/>
</g>

<g id="level4" width="15" height="14">
	<path fill="#879196" d="M10 7.686v-4.649h-1.057l-2.943 4.559v.826h3v1.6h1v-1.6h1v-.736h-1zm-1 0h-2.166l2.166-3.43v3.43z"/>
	<path fill="#879196" d="M8.627 14h-.322l-.105-.053c-4.065-2.019-6.191-5.023-6.191-6.947h1c0 1.241 1.492 3.943 5.483 5.977 4.582-1.894 5.508-4.463 5.508-7.987v-3.99h-8v-1h9v4.99c0 3.866-1.068 6.872-6.283 8.974l-.09.036z"/>
	<path fill="#879196" d="M5 2h-2v-2h-1v2h-2v1h2v2h1v-2h2z"/>
</g>
<g id="level4_profile" width="15" height="14">
	<path fill="#22B37F" d="M10 7.686v-4.649h-1.057l-2.943 4.559v.826h3v1.6h1v-1.6h1v-.736h-1zm-1 0h-2.166l2.166-3.43v3.43z"/>
	<path fill="#879196" d="M8.627 14h-.322l-.105-.053c-4.065-2.019-6.191-5.023-6.191-6.947h1c0 1.241 1.492 3.943 5.483 5.977 4.582-1.894 5.508-4.463 5.508-7.987v-3.99h-8v-1h9v4.99c0 3.866-1.068 6.872-6.283 8.974l-.09.036z"/>
	<path fill="#22B37F" d="M5 2h-2v-2h-1v2h-2v1h2v2h1v-2h2z"/>
</g>

<g id="level5" width="15" height="14">
	<path fill="#879196" d="M10.309 6.148c-.381-.428-.896-.643-1.543-.643-.442 0-.839.104-1.188.309l.215-1.939h2.877v-.834h-3.643l-.361 3.545.723.185.238-.195c.225-.174.534-.26.928-.26.43 0 .774.145 1.031.432.262.289.391.667.391 1.146 0 .504-.119.899-.357 1.186-.241.287-.57.43-.99.43-.385 0-.694-.104-.928-.308-.235-.207-.38-.515-.436-.923h-.854c.055.616.282 1.097.678 1.446.397.35.91.522 1.539.522.709 0 1.262-.213 1.657-.634.396-.42.593-.997.593-1.729 0-.73-.19-1.308-.57-1.736z"/>
	<path fill="#879196" d="M8.627 14h-.322l-.105-.053c-4.064-2.019-6.19-5.023-6.19-6.947h1c0 1.241 1.492 3.943 5.483 5.977 4.581-1.894 5.507-4.463 5.507-7.987v-3.99h-8v-1h9v4.99c0 3.866-1.068 6.872-6.283 8.974l-.09.036z"/>
	<path fill="#879196" d="M3 0h-1v2h-2v1h2v2h1v-2h2v-1h-2z"/>
</g>
<g id="level5_profile" width="15" height="14">
	<path fill="#22B37F" d="M10.309 6.148c-.381-.428-.896-.643-1.543-.643-.442 0-.839.104-1.188.309l.215-1.939h2.877v-.834h-3.643l-.361 3.545.723.185.238-.195c.225-.174.534-.26.928-.26.43 0 .774.145 1.031.432.262.289.391.667.391 1.146 0 .504-.119.899-.357 1.186-.241.287-.57.43-.99.43-.385 0-.694-.104-.928-.308-.235-.207-.38-.515-.436-.923h-.854c.055.616.282 1.097.678 1.446.397.35.91.522 1.539.522.709 0 1.262-.213 1.657-.634.396-.42.593-.997.593-1.729 0-.73-.19-1.308-.57-1.736z"/>
	<path fill="#879196" d="M8.627 14h-.322l-.105-.053c-4.064-2.019-6.19-5.023-6.19-6.947h1c0 1.241 1.492 3.943 5.483 5.977 4.581-1.894 5.507-4.463 5.507-7.987v-3.99h-8v-1h9v4.99c0 3.866-1.068 6.872-6.283 8.974l-.09.036z"/>
	<path fill="#22B37F" d="M3 0h-1v2h-2v1h2v2h1v-2h2v-1h-2z"/>
</g>


<g id="agregge-friend">
<path fill="#22B37F" d="M8.187 7.982c2.124-.093 3.826-1.836 3.826-3.982 0-2.206-1.794-4-4-4s-4 1.794-4 4c0 2.148 1.705 3.892 3.832 3.983-4.313.09-7.529 3.382-7.843 6.466-.028.275.172.521.446.549.266.021.521-.172.548-.447.269-2.637 3.221-5.576 7.026-5.576 3.783 0 6.72 2.939 6.989 5.576.028.257.244.449.497.449l.052-.002c.274-.028.475-.273.446-.549-.315-3.087-3.522-6.384-7.819-6.467zm-.174-.982c-1.654 0-3-1.346-3-3s1.346-3 3-3 3 1.346 3 3-1.346 3-3 3zm13.988-2.018h-3v-2.963c0-.276-.224-.5-.5-.5s-.5.224-.5.5v2.963h-3c-.276 0-.5.224-.5.5s.224.5.5.5h3v3.037c0 .276.224.5.5.5s.5-.224.5-.5v-3.037h3c.276 0 .5-.224.5-.5s-.223-.5-.5-.5z"/>
</g>

<g id="report-spam" width="3" height="15">
<path fill="#879196" d="M1.5 3c.828 0 1.5-.671 1.5-1.5s-.672-1.5-1.5-1.5c-.829 0-1.5.671-1.5 1.5s.671 1.5 1.5 1.5zm0 9.002c-.829 0-1.5.672-1.5 1.5 0 .829.671 1.5 1.5 1.5.828 0 1.5-.671 1.5-1.5 0-.828-.672-1.5-1.5-1.5zm0-5.984c-.829 0-1.5.671-1.5 1.5s.671 1.5 1.5 1.5c.828 0 1.5-.672 1.5-1.5s-.672-1.5-1.5-1.5z"/>
</g>

<g id="icon-view" width="17" height="12">
<path fill="#879196" d="M8.47 2.984c-1.637 0-2.971 1.339-2.975 2.985 0 .815.307 1.573.865 2.137.561.566 1.313.878 2.123.878 1.676 0 2.989-1.317 2.989-3s-1.319-3-3.002-3zm.013 5c-.542 0-1.045-.208-1.416-.583s-.575-.883-.575-1.431c.002-1.114.871-1.986 1.978-1.986 1.125 0 2.006.879 2.006 2 0 1.12-.875 2-1.993 2zm8.377-2.495c-1.081-2.241-3.866-4.118-5.367-4.775-1.035-.454-2.013-.693-2.939-.714-1.002 0-2.116.263-3.056.722-1.493.725-3.444 1.916-5.314 4.704-.24.356-.246.835-.014 1.22 1.376 2.287 3.739 3.935 5.343 4.65 1.013.454 2.094.704 3.041.704h.031c.984-.022 2.052-.282 2.927-.711 2.427-1.187 4.373-2.885 5.338-4.659.196-.364.199-.749.01-1.141zm-.888.661c-.855 1.572-2.687 3.156-4.899 4.238-.75.368-1.666.59-2.512.609l.012.502-.019-.502c-.811 0-1.746-.219-2.636-.617-1.185-.528-3.548-2.018-4.894-4.253l-.012-.14c1.737-2.59 3.543-3.692 4.922-4.363.81-.396 1.765-.622 2.627-.622.755.017 1.63.235 2.531.629 1.473.645 3.956 2.402 4.868 4.294.06.124.043.167.012.225z"/>
</g>

<g id="icon-share" width="14" height="15">
<path fill="#22B37F" d="M11.496 10.006c-.841 0-1.582.42-2.034 1.059l-4.538-3.004c.086-.35.086-.756.023-1.042l4.564-3.023c.456.603 1.172.999 1.984.999 1.378 0 2.497-1.121 2.497-2.498.001-1.377-1.118-2.497-2.496-2.497s-2.497 1.12-2.497 2.498c0 .203.031.398.077.587l-4.522 2.996c-.451-.655-1.203-1.086-2.056-1.086-1.377 0-2.498 1.12-2.498 2.497s1.121 2.498 2.498 2.498c.82 0 1.542-.403 1.998-1.016l4.556 3.018c-.26.969.396 3.008 2.444 3.008 1.378 0 2.497-1.12 2.497-2.498 0-1.377-1.119-2.496-2.497-2.496zm0-9.007c.826 0 1.499.672 1.499 1.499s-.673 1.499-1.499 1.499-1.499-.673-1.499-1.499.672-1.499 1.499-1.499zm-8.998 7.991c-.827 0-1.499-.671-1.499-1.498 0-.826.672-1.498 1.499-1.498.826 0 1.498.672 1.498 1.498 0 .827-.672 1.498-1.498 1.498zm8.998 5.011c-.826 0-1.499-.672-1.499-1.499 0-.825.673-1.498 1.499-1.498s1.499.673 1.499 1.498c0 .827-.673 1.499-1.499 1.499z"/>
</g>

<g id="icon-qualification" width="18" height="16">
<path fill="#22B37F" d="M14.258 16c-.075 0-.149-.017-.22-.051l-5.031-2.459-5.045 2.46c-.169.084-.371.063-.521-.052-.15-.114-.224-.304-.188-.489l.959-5.158-4.047-3.647c-.145-.13-.2-.332-.143-.519.057-.185.217-.321.411-.347l5.614-.765 2.52-4.709c.086-.162.255-.264.44-.264h.001c.185 0 .354.102.44.265l2.504 4.708 5.615.765c.193.026.353.162.41.348s.002.389-.143.519l-4.043 3.646.957 5.159c.035.186-.038.375-.188.489-.088.067-.195.101-.302.101zm-12.623-9.417l3.454 3.113c.129.116.188.291.156.463l-.829 4.457 4.372-2.131c.137-.068.3-.068.438 0l4.358 2.13-.827-4.457c-.032-.171.027-.346.156-.462l3.451-3.112-4.802-.654c-.159-.021-.299-.118-.374-.261l-2.182-4.107-2.198 4.108c-.076.141-.214.238-.373.259l-4.8.654z"/>
</g>

<g id="icon-qualification_profile" width="18" height="16">
<path fill="#879196" d="M14.258 16c-.075 0-.149-.017-.22-.051l-5.031-2.459-5.045 2.46c-.169.084-.371.063-.521-.052-.15-.114-.224-.304-.188-.489l.959-5.158-4.047-3.647c-.145-.13-.2-.332-.143-.519.057-.185.217-.321.411-.347l5.614-.765 2.52-4.709c.086-.162.255-.264.44-.264h.001c.185 0 .354.102.44.265l2.504 4.708 5.615.765c.193.026.353.162.41.348s.002.389-.143.519l-4.043 3.646.957 5.159c.035.186-.038.375-.188.489-.088.067-.195.101-.302.101zm-12.623-9.417l3.454 3.113c.129.116.188.291.156.463l-.829 4.457 4.372-2.131c.137-.068.3-.068.438 0l4.358 2.13-.827-4.457c-.032-.171.027-.346.156-.462l3.451-3.112-4.802-.654c-.159-.021-.299-.118-.374-.261l-2.182-4.107-2.198 4.108c-.076.141-.214.238-.373.259l-4.8.654z"/>
</g>

<g id="icon-message" width="16" height="14">
<path fill="#22B37F" d="M.5 14c-.079 0-.157-.019-.229-.056-.167-.086-.271-.258-.271-.444l.011-11.998c0-.828.672-1.502 1.498-1.502h12.994c.825 0 1.497.674 1.497 1.503v7.988c0 .829-.672 1.503-1.497 1.503h-9.368c-.217 0-.612.234-.81.394l-3.535 2.52c-.086.06-.188.092-.29.092zm1.009-13c-.275 0-.498.226-.498.503l-.01 11.026 2.721-1.938c.103-.084.769-.597 1.413-.597h9.368c.274 0 .497-.226.497-.503v-7.988c0-.277-.223-.503-.497-.503h-12.994z"/>
</g>

<g id="icon-message_profile" width="16" height="14">
<path fill="#879196" d="M.5 14c-.079 0-.157-.019-.229-.056-.167-.086-.271-.258-.271-.444l.011-11.998c0-.828.672-1.502 1.498-1.502h12.994c.825 0 1.497.674 1.497 1.503v7.988c0 .829-.672 1.503-1.497 1.503h-9.368c-.217 0-.612.234-.81.394l-3.535 2.52c-.086.06-.188.092-.29.092zm1.009-13c-.275 0-.498.226-.498.503l-.01 11.026 2.721-1.938c.103-.084.769-.597 1.413-.597h9.368c.274 0 .497-.226.497-.503v-7.988c0-.277-.223-.503-.497-.503h-12.994z"/>
</g>

<g id="icon-respond" width="15" height="15">
<path fill="#879196" d="M12.519 15h-.02c-7.92 0-8.473-5.521-8.511-7.987h-3.488c-.209 0-.396-.13-.469-.327-.072-.196-.014-.417.146-.553l7.042-6.013c.187-.159.462-.16.649.001l6.958 6.013c.158.136.216.357.143.553-.072.196-.259.326-.468.326h-3.498l-.005.386c-.027 2.425-.054 4.716 1.789 6.679.14.088.232.245.232.422.001.275-.224.5-.5.5zm-10.662-8.987h2.626c.276 0 .5.224.5.5 0 3.292.759 7.025 6.419 7.448-1.454-2.059-1.427-4.35-1.402-6.573l.007-.875c0-.276.224-.5.499-.5h2.649l-5.615-4.855-5.683 4.855z"/>
</g>

<g id="icon-delete_user" width="21" height="15">
<path fill="#879196" d="M8.215 7.984c2.129-.087 3.839-1.834 3.839-3.984 0-2.206-1.794-4-4-4s-4 1.794-4 4c0 2.144 1.699 3.885 3.819 3.981-4.328.076-7.556 3.377-7.871 6.468-.028.274.172.521.447.548.29.039.521-.172.548-.446.269-2.638 3.22-5.576 7.026-5.576 3.783 0 6.72 2.938 6.989 5.576.027.258.244.449.497.449l.052-.003c.274-.027.475-.273.446-.548-.315-3.081-3.509-6.368-7.792-6.465zm-3.161-3.984c0-1.654 1.346-3 3-3s3 1.346 3 3-1.346 3-3 3-3-1.346-3-3zm15.503.988h-5c-.276 0-.5.224-.5.5s.224.5.5.5h5c.276 0 .5-.224.5-.5s-.224-.5-.5-.5z"/>
</g>

<g id="icon-see_profile" width="22" height="15">
<path fill="#879196" d="M15.507 1.982h6c.276 0 .5-.224.5-.5s-.224-.5-.5-.5h-6c-.276 0-.5.224-.5.5s.223.5.5.5zm-7.259 5.997c2.096-.119 3.769-1.849 3.769-3.978 0-2.206-1.791-4.001-3.993-4.001s-3.992 1.795-3.992 4.002c0 2.129 1.673 3.858 3.769 3.978-4.291.112-7.486 3.39-7.799 6.463-.028.274.172.521.447.548.29.039.52-.172.548-.446.268-2.638 3.22-5.576 7.027-5.576 3.786 0 6.723 2.938 6.991 5.576.025.258.243.449.496.449l.052-.003c.274-.027.475-.273.446-.548-.311-3.073-3.492-6.351-7.761-6.464zm-3.216-3.977c0-1.655 1.343-3.002 2.992-3.002s2.992 1.347 2.992 3.002c0 1.654-1.342 3-2.992 3s-2.992-1.346-2.992-3zm16.475-.016h-6c-.276 0-.5.224-.5.5s.224.5.5.5h6c.276 0 .5-.224.5-.5s-.224-.5-.5-.5zm0 3.006h-4c-.276 0-.5.224-.5.5s.224.5.5.5h4c.276 0 .5-.224.5-.5s-.224-.5-.5-.5z"/>
</g>

<g id="icon-report_content" width="17" height="17">
<path fill="#879196" d="M15.173 3h-5.173c0-1.024-.833-2-1.858-2h-6.284c-.311 0-.6.084-.858.22v-.72c0-.276-.224-.5-.5-.5s-.5.224-.5.5v16c0 .276.224.5.5.5s.5-.224.5-.5v-5.72c.258.136.547.22.858.22h6.142c0 1.059.764 2 1.776 2h5.396c1.025 0 1.828-.815 1.828-1.857v-6.286c0-1.041-.803-1.857-1.827-1.857zm.827 8.143c0 .48-.363.857-.827.857h-5.397c-.509 0-.776-.432-.776-.857v-.643c0-.276-.224-.5-.5-.5h-6.642c-.473 0-.858-.385-.858-.857v-6.286c0-.472.385-.857.858-.857h6.283c.474 0 .859.385.859.857v.643c0 .276.224.5.5.5h5.673c.464 0 .827.376.827.857v6.286z"/>
</g>

<g id="icon-order" width="20" height="11">
<path fill="#5597D7" d="M8.138 6.162l-3.161 3.136v-8.796c0-.277-.221-.502-.494-.502s-.494.225-.494.502v8.794l-3.136-3.131c-.267-.271-.609-.097-.707.001-.195.195-.195.512 0 .708l4.003 3.981c.093.092.221.145.353.145h.001c.133 0 .26-.054.353-.147l3.989-3.984c.195-.197.195-.513-.001-.708-.195-.196-.511-.196-.706.001zm11.716-2.007l-3.984-4.008c-.093-.094-.22-.147-.352-.147h-.002c-.133 0-.26.053-.353.146l-4.021 4.023c-.196.195-.196.512 0 .708.098.098.439.272.705.001l3.156-3.173v8.793c0 .277.221.502.493.502.273 0 .494-.225.494-.502v-8.796l3.157 3.159c.194.196.511.196.705.001.197-.195.197-.511.002-.707z"/>
</g>

<g id="icon-filter" width="18" height="14">
<path fill="#5597D7" d="M-1.014 1.506l9.5-.003v.966c0 .276.224.5.501.5.275 0 .5-.224.5-.5v-3c0-.276-.225-.5-.5-.5-.277 0-.501.224-.501.5v1.04l-9.5-.003c-.276 0-.501.224-.501.5s.225.5.501.5zm0 5l3.49-.003v.966c0 .275.224.5.501.5.276 0 .501-.225.501-.5v-3c0-.276-.225-.5-.501-.5-.277 0-.501.224-.501.5 0 0 .007 1.037 0 1.037h-3.49c-.276 0-.501.224-.501.5s.225.5.501.5zm13.01-5h3.983c.279 0 .506-.224.506-.5s-.227-.5-.506-.5h-3.983c-.279 0-.505.224-.505.5s.226.5.505.5zm3.987 4h-9.985c-.277 0-.502.224-.502.5s.225.5.502.5h9.985c.277 0 .502-.224.502-.5 0-.277-.225-.5-.502-.5zm.001 5h-8.5v-1.037c0-.275-.225-.5-.501-.5-.277 0-.5.225-.5.5v3c0 .275.224.5.5.5s.501-.225.501-.5v-.963h8.499c.276 0 .501-.225.501-.5 0-.277-.224-.5-.5-.5zm-12.006 0h-4.992c-.276 0-.501.224-.501.5 0 .275.225.5.501.5h4.992c.276 0 .501-.225.501-.5 0-.277-.223-.5-.501-.5z"/>
</g>

<g id="close-po-up" width="8" height="14">
<path fill="#fff" d="M7.002 13.992c-.255 0-.51-.097-.704-.29l-6-5.97c-.189-.187-.295-.442-.296-.708s.104-.521.291-.709l5.985-6.028c.388-.392 1.021-.394 1.413-.004.392.39.394 1.023.004 1.416l-5.279 5.318 5.291 5.263c.393.39.394 1.022.005 1.417-.196.197-.452.295-.71.295z"/>
</g>

<g id="icon-back" width="8" height="14">
<path fill="#879196" d="M7.002 13.992c-.255 0-.51-.097-.704-.29l-6-5.97c-.189-.187-.295-.442-.296-.708s.104-.521.291-.709l5.985-6.028c.388-.392 1.021-.394 1.413-.004.392.39.394 1.023.004 1.416l-5.279 5.318 5.291 5.263c.393.39.394 1.022.005 1.417-.196.197-.452.295-.71.295z"/>
</g>


<g id="btn-facebook" width="30" height="30">
<path fill="#22B37F" d="M15.001 30c-8.272 0-15.001-6.729-15.001-14.999 0-8.272 6.729-15.001 15.001-15.001 8.27 0 14.999 6.729 14.999 15.001 0 8.27-6.729 14.999-14.999 14.999zm0-29c-7.72 0-14.001 6.281-14.001 14.001 0 7.719 6.281 13.999 14.001 13.999 7.719 0 13.999-6.28 13.999-13.999 0-7.72-6.28-14.001-13.999-14.001z"/>
<path fill="#22B57F" d="M16.482 24.009h-4c-.276 0-.5-.224-.5-.5v-8.5h-1.5c-.276 0-.5-.224-.5-.5v-3c0-.276.224-.5.5-.5h1.5v-1.373c0-2.239.589-3.627 3.523-3.627h3.977c.276 0 .5.224.5.5v3c0 .276-.224.5-.5.5h-2.147c-.217 0-.309.014-.347.024l-.006.253v.723h2.518c.14 0 .273.059.368.162s.142.241.13.38l-.252 3c-.021.259-.238.458-.498.458h-2.266v8.5c0 .276-.223.5-.5.5zm-3.5-1h3v-8.5c0-.276.224-.5.5-.5h2.306l.168-2h-2.474c-.276 0-.5-.224-.5-.5v-1.223c0-1.06.541-1.277 1.353-1.277h1.647v-2h-3.477c-2.159 0-2.523.656-2.523 2.627v1.873c0 .276-.224.5-.5.5h-1.5v2h1.5c.276 0 .5.224.5.5v8.5z"/>
</g>

<g id="btn-twitter" width="230" height="230">
<path fill="#22B37F" d="M11.068 23.002c-2.121 0-4.178-.604-5.95-1.743-.196-.127-.279-.37-.2-.59.08-.22.3-.356.53-.327 1.448.174 2.872-.103 4.112-.771-1.226-.426-2.212-1.406-2.622-2.688-.054-.168-.015-.352.102-.483l.13-.105c-.976-.796-1.585-2.014-1.556-3.314.004-.175.099-.335.25-.422.111-.065.241-.083.363-.054-.747-1.272-.799-2.897-.012-4.249.083-.142.229-.234.393-.247.169-.009.323.056.426.183 1.662 2.042 4.063 3.346 6.662 3.637-.075-1.041.24-2.073.903-2.908.802-1.011 2-1.591 3.292-1.591 1.062 0 2.09.407 2.862 1.124.683-.161 1.334-.424 1.94-.784.176-.108.402-.092.565.039.162.129.228.346.165.543-.166.517-.482 1.128-.89 1.662.259-.03.499-.079.704-.171.201-.09.441-.037.587.133.144.17.157.414.034.6-.478.719-1.066 1.353-1.756 1.887.053 2.731-.978 5.399-2.849 7.355-1.428 1.498-4.011 3.284-8.185 3.284zm-3.665-1.691c1.159.455 2.399.691 3.665.691 3.024 0 5.606-1.027 7.466-2.975 1.743-1.824 2.678-4.334 2.563-6.886-.009-.168.068-.329.205-.428.321-.232.62-.489.896-.768l-.275.015c-.229.012-.459.024-.68.051-.241.036-.456-.111-.533-.333-.077-.223.013-.47.215-.591.326-.195.646-.533.915-.914-.374.134-.759.24-1.15.317-.17.034-.344-.023-.461-.149-.603-.642-1.455-1.011-2.338-1.011-.982 0-1.897.442-2.509 1.213-.612.772-.835 1.764-.612 2.722.036.153-.002.313-.103.434-.101.121-.253.183-.409.179-2.847-.143-5.528-1.39-7.472-3.453-.409 1.325.084 2.81 1.284 3.611.186.124.267.356.199.569-.068.212-.268.369-.492.347-.367-.012-.732-.072-1.082-.178.281 1.182 1.25 2.156 2.488 2.401.227.045.393.24.402.472.009.23-.142.438-.364.5-.322.092-.658.142-.999.148.564.905 1.558 1.487 2.663 1.51.211.004.397.141.464.34.067.201.001.422-.166.554-1.096.86-2.408 1.414-3.78 1.612zM15.002 29.998c-8.272 0-15.002-6.729-15.002-15.001 0-8.27 6.73-14.999 15.002-14.999 8.269 0 14.998 6.729 14.998 14.999 0 8.272-6.729 15.001-14.998 15.001zm0-29.001c-7.721 0-14.002 6.28-14.002 14s6.281 14.001 14.002 14.001c7.719 0 13.998-6.281 13.998-14.001s-6.279-14-13.998-14z"/>
</g>

<g id="btn-linkedin" width="30" height="30">
<path fill="#22B37F" d="M15.002 30c-8.272 0-15.002-6.729-15.002-14.999 0-8.272 6.73-15.001 15.002-15.001 8.269 0 14.998 6.729 14.998 15.001 0 8.27-6.729 14.999-14.998 14.999zm0-29c-7.721 0-14.002 6.281-14.002 14.001 0 7.719 6.281 13.999 14.002 13.999 7.719 0 13.998-6.28 13.998-13.999 0-7.72-6.279-14.001-13.998-14.001zM9.994 10.011c1.096 0 1.987-.897 1.987-2 0-1.101-.892-1.996-1.987-1.996-1.096 0-1.988.896-1.988 1.996 0 1.103.892 2 1.988 2zm0-2.996c.544 0 .987.447.987.996 0 .551-.443 1-.987 1-.545 0-.988-.449-.988-1 0-.55.443-.996.988-.996zm1.515 3.977h-3c-.276 0-.5.224-.5.5v10c0 .276.224.5.5.5h3c.276 0 .5-.224.5-.5v-10c0-.276-.224-.5-.5-.5zm-.5 10h-2v-9h2v9zm8.142-9.975c-1.033 0-2.143.315-2.143.696v-.196c0-.276-.533-.524-.81-.524h-2.721c-.276 0-.47.248-.47.524v9.979c0 .276.193.497.47.497h2.721c.276 0 .81-.221.81-.497v-5.254c0-1.361.316-1.619 1.164-1.619.342 0 .836 0 .836 1.619v5.254c0 .276.2.497.477.497h3.002c.276 0 .521-.221.521-.497v-6.276c.001-2.593-1.388-4.203-3.857-4.203zm2.858 9.975h-2v-4.751c0-2.165-.934-2.619-1.836-2.619-2.307 0-2.164 1.971-2.164 2.619v4.751h-2v-9h2v1.036c0 .229.001.429.223.485.221.057.377-.047.485-.248.251-.467.862-1.249 2.319-1.249 1.907 0 2.973 1.167 2.973 3.203v5.773z"/>
</g>

<g id="btn-instagram" width="30" height="30">
<path fill="#22B37F" d="M15.002 30c-8.272 0-15.002-6.729-15.002-15 0-8.269 6.73-14.999 15.002-14.999 8.269 0 14.998 6.73 14.998 14.999 0 8.271-6.729 15-14.998 15zm0-28.999c-7.721 0-14.002 6.281-14.002 13.999 0 7.72 6.281 14 14.002 14 7.719 0 13.998-6.28 13.998-14 0-7.718-6.279-13.999-13.998-13.999zM15.006 11.003c-2.206 0-4 1.793-4 3.998 0 2.206 1.794 4 4 4s4-1.794 4-4c0-2.205-1.794-3.998-4-3.998zm0 6.998c-1.654 0-3-1.346-3-3 0-1.653 1.346-2.999 3-2.999s3 1.345 3 2.999c0 1.654-1.346 3-3 3zm3.986-8.011c-.553 0-1 .447-1 1 0 .551.447.998 1 .998s1-.447 1-.998c0-.553-.447-1-1-1zm3.975 1.533c-.044-.966-.216-1.527-.362-1.909-.207-.535-.467-.934-.866-1.336-.397-.4-.81-.668-1.331-.869-.372-.146-.925-.32-1.906-.364-.928-.044-1.24-.051-3.483-.051-2.241 0-2.554.007-3.482.051-.973.044-1.527.215-1.902.36-.529.206-.94.476-1.332.872-.4.4-.66.8-.87 1.338-.144.374-.315.929-.362 1.908-.042.933-.05 1.209-.05 3.493 0 2.282.009 2.56.05 3.496.046.98.218 1.536.363 1.913.208.531.476.941.865 1.327.393.397.805.667 1.332.873.364.145.91.317 1.907.366.913.041 1.187.05 3.481.05 2.296 0 2.569-.009 3.487-.05.994-.049 1.539-.222 1.899-.365.534-.208.945-.477 1.332-.868.4-.402.66-.803.87-1.341.145-.378.316-.936.362-1.908.039-.929.047-1.205.047-3.493 0-2.295-.009-2.57-.049-3.493zm-.997 6.943c-.039.828-.18 1.287-.296 1.592-.157.404-.345.692-.648.997-.292.296-.577.481-.988.642-.291.117-.734.256-1.579.297-.897.04-1.166.049-3.44.049-2.273 0-2.542-.009-3.434-.048-.848-.042-1.292-.182-1.588-.299-.403-.157-.689-.345-.99-.648-.296-.295-.482-.581-.641-.983-.117-.304-.257-.761-.296-1.597-.041-.916-.049-1.189-.049-3.45 0-2.262.009-2.535.049-3.447.04-.834.179-1.292.295-1.593.156-.406.343-.694.645-.996.298-.302.584-.489.985-.645.303-.117.757-.256 1.587-.293.888-.042 1.128-.05 3.436-.05 2.31 0 2.55.008 3.438.05.835.038 1.286.178 1.589.297.398.153.685.339.985.642.301.302.486.59.643.989.118.311.259.772.296 1.595.04.904.048 1.174.048 3.449-.001 2.268-.009 2.54-.047 3.45z"/>
</g>

</svg>