<svg xmlns="http://www.w3.org/2000/svg" id="upload-image" width="32.01" height="28.97" viewBox="0 0 32.01 28.97"><path d="M27.52 16.47c-.28 0-.5.22-.5.5v9.41c0 .87-.71 1.58-1.58 1.58h-22.86c-.87.01-1.58-.7-1.58-1.58v-22.86c0-.87.71-1.58 1.58-1.58h17.87c.28 0 .5-.22.5-.5s-.22-.5-.5-.5h-17.87c-1.42 0-2.58 1.16-2.58 2.58v22.86c0 1.42 1.16 2.58 2.58 2.58h22.86c1.42 0 2.58-1.16 2.58-2.58v-9.41c0-.28-.23-.5-.5-.5zm-16.51-4.51c1.65 0 3-1.35 3-3s-1.35-3-3-3-3 1.35-3 3 1.35 3 3 3zm0-5c1.1 0 2 .9 2 2s-.9 2-2 2-2-.9-2-2 .9-2 2-2zm20.85-2.86l-3.99-3.96c-.2-.19-.51-.19-.7 0l-4.02 3.98c-.2.19-.2.51 0 .71.1.1.23.15.36.15.13 0 .25-.05.35-.14l3.17-3.13v10.26c0 .28.22.5.5.5s.5-.22.5-.5v-10.27l3.14 3.12c.2.2.51.19.71 0 .18-.21.18-.52-.02-.72zm-28.14 19.25c.1.09.22.14.35.14.13 0 .26-.05.36-.15l4.57-4.69 3.67 3.66c.1.1.24.16.39.15.14-.01.28-.08.36-.2l5.68-7.54 4.62 4.65c.19.2.51.2.71 0s.2-.51 0-.71l-5.03-5.06c-.1-.1-.25-.15-.39-.15-.14.01-.28.08-.37.2l-5.68 7.54-3.62-3.62c-.09-.09-.22-.15-.35-.15-.17-.02-.26.05-.36.15l-4.92 5.06c-.19.21-.19.53.01.72z" fill="#22B37F"/></svg>