<svg xmlns="http://www.w3.org/2000/svg" id='user_founder_banner' width="302.99" height="154.74" viewBox="0 0 302.99 154.74"><path d="M223.62 65.06c-2.77 4.08-2.11 9.22-.46 11.9 2.28-2.61 3.87-8.1.46-11.9zm2.82-7.35c-2.04 3.77-.68 8.71 1.34 11.67 3.36-5.42.24-10.56-1.34-11.67zm3.16-26.07c.37-5.8-1.27-10.06-7.84-14.51 1.58 6.56 4.98 12.72 7.84 14.51zm1.49 28.68c1.1-3.25.25-8.86-3.02-9.97-1.61 4.65.51 7.69 3.02 9.97zm1.51-8.62c.42-5.24-3.53-7.97-5.41-8.19-.71 3.61 2.79 6.86 5.41 8.19zm-6.89-15.77c.03 5.11 3.49 7.12 6.21 7.99-.48-5.62-4.83-7.89-6.21-7.99zm-2.23-7.24c.13 3.72 4.5 7.39 7.02 7.96-.72-4.11-4.55-7.76-7.02-7.96zm-.68 49.29c2.78.96 8.61.89 10.88-5.89-2.83-.51-8.1 1.88-10.88 5.89zm-3.1-4.83c-3.37 1.74-3.48 7.18-2.52 10.14 4.9-4 3.74-8.67 2.52-10.14zm-3.54 11.37c1.52.86 7.78 2.26 12.03-3.69-4.2-1.11-9.81 1.9-12.03 3.69zm-1.54-5.6c-4.17 2.08-4.75 6.46-4.24 9.57 5.68-3.37 5.15-8.04 4.24-9.57zm-5.29 10.63c1.34 1.03 8.43 3.67 13.7-2.51-3.92-1.79-11.16 1.04-13.7 2.51zm-.9-4.71c-2.93 1.58-6.45 4.41-6.17 8.51 4.15-1.47 7.5-4.72 6.17-8.51zm-6.01 9.04c.54 1.86 4.56 3.91 11.7-1.37-2.29-1.89-8.94.36-11.7 1.37zm-1.27-4.42c-2.97 1.5-6.56 4.25-6.38 8.35 4.18-1.36 7.61-4.53 6.38-8.35zm-6.25 8.89c.49 1.87 4.46 4.03 11.73-1.08-2.23-1.95-8.94.13-11.73 1.08zm32.87-27.69c3.26-.74 10.31-1.85 8.6-8.5-3.25.56-7.88 6.87-8.6 8.5zm3.3-8.59c4.4-.84 8.36-4.55 6.98-9.97-3.76 1.29-6.22 7.05-6.98 9.97zm1.85-9.07c2.43-.86 5.94-5.09 3.46-9.69-3.38 2.84-3.35 7.2-3.46 9.69zm-.46-8.02c1.58-.83 5.71-3.76 2.46-9.35-2.27 1.32-2.81 6.75-2.46 9.35zm-.81-18.15c-2.44 3.87-1.04 9.28-.36 11.57 1.08-.86 4.13-4.68.36-11.57zm-150.98 38.23c-3.41 3.79-1.82 9.29.46 11.9 1.65-2.67 2.31-7.82-.46-11.9zm-2.82-7.35c-1.59 1.11-4.7 6.24-1.34 11.67 2.03-2.96 3.38-7.9 1.34-11.67zm4.68-40.58c-6.57 4.45-8.21 8.71-7.84 14.51 2.86-1.79 6.26-7.95 7.84-14.51zm-6.32 33.22c-3.27 1.11-4.12 6.72-3.02 9.97 2.52-2.28 4.64-5.32 3.02-9.97zm-4.52 1.35c2.62-1.33 6.12-4.58 5.41-8.19-1.89.23-5.83 2.96-5.41 8.19zm6.88-15.77c-1.37.1-5.72 2.37-6.21 7.99 2.72-.88 6.19-2.88 6.21-7.99zm2.23-7.24c-2.46.2-6.29 3.86-7.02 7.96 2.52-.57 6.89-4.24 7.02-7.96zm.68 49.29c-2.77-4.01-8.04-6.4-10.88-5.89 2.27 6.78 8.1 6.85 10.88 5.89zm5.62 5.31c.96-2.96.85-8.4-2.52-10.14-1.21 1.47-2.37 6.14 2.52 10.14zm1.03 1.23c-2.22-1.8-7.83-4.8-12.03-3.69 4.25 5.96 10.51 4.55 12.03 3.69zm5.78 3.97c.52-3.11-.07-7.48-4.24-9.57-.91 1.53-1.45 6.2 4.24 9.57zm-12.66-1.45c5.27 6.18 12.36 3.54 13.7 2.51-2.53-1.47-9.77-4.3-13.7-2.51zm20.77 6.31c.28-4.11-3.23-6.94-6.17-8.51-1.32 3.79 2.03 7.04 6.17 8.51zm-.15.53c-2.76-1.02-9.42-3.26-11.7-1.37 7.14 5.29 11.16 3.23 11.7 1.37zm7.65 3.93c.18-4.11-3.41-6.85-6.38-8.35-1.23 3.82 2.2 6.99 6.38 8.35zm-11.87-.54c7.27 5.11 11.24 2.95 11.73 1.08-2.79-.95-9.5-3.03-11.73-1.08zm-25.82-52.29c.35-2.6-.19-8.03-2.46-9.35-3.25 5.6.88 8.52 2.46 9.35zm1.16-6.58c.68-2.29 2.08-7.7-.36-11.57-3.76 6.89-.72 10.71.36 11.57zm-5.06 23.77c-1.72 6.65 5.33 7.76 8.6 8.5-.74-1.64-5.36-7.95-8.6-8.5zm5.28-.1c-.76-2.92-3.21-8.68-6.98-9.97-1.37 5.41 2.59 9.12 6.98 9.97zm-1.84-9.07c-.11-2.49-.08-6.85-3.46-9.69-2.49 4.6 1.02 8.83 3.46 9.69zm78.73 29.48c5.63 0 6.11-4.64 6.11-9.38v-.47c.61-.3 1.15-.69 1.6-1.16 2-2.07 1.67-4.97 1.65-5.09-.04-.29-.2-.55-.45-.71-.25-.16-.55-.2-.83-.12-.02.01-2.16.63-5.02.63-2.51 0-9.17 0-9.17 7.17.01 5.78 1.01 9.13 6.11 9.13zm0-2c-2.65 0-3.8-.82-4.05-5.08 1.16-.21 1.82-.76 2.37-1.23.66-.55 1.13-.95 2.61-.82 1.17.11 2.23.08 3.17-.09-.02 6.17-1.28 7.22-4.1 7.22zm-4.1-7.14c0-4.29 2.87-5.17 7.17-5.17 1.77 0 3.27-.21 4.27-.41-.1.7-.38 1.6-1.06 2.31-1.03 1.07-2.77 1.5-5.16 1.28-2.31-.21-3.29.62-4.08 1.28-.37.31-.68.57-1.14.72v-.01zm47.47 5.47c-.27-.12-.63-.28-.91-.42.3-.23.71-.51 1.02-.72 1.36-.91 2.91-1.95 2.91-3.37 0-1.88-1.11-2.83-3.29-2.83h-7.38v-1.17c0-1.56-1.44-2.83-3.21-2.83h-8.85c-.45 0-.88.09-1.27.24v-1.25c0-.55-.45-1-1-1s-1 .45-1 1v19.01c-1.56-.06-3.31-.01-5.12.07-.79.03-1.47.06-1.99.06-2.83 0-7.75-1.95-7.8-1.97-.45-.18-.96-.01-1.22.4l-4.26 6.86-4.26-6.86-.07-.07-.07-.11-.1-.07-.14-.1-.25-.09-.1-.03-.05.01c-.1-.01-.19.01-.29.03l-.13.03c-.13.05-.25.12-.36.22-5.44 5.44-26.09 16.05-26.3 16.16-.28.15-.48.42-.53.73s.05.64.28.86c6.06 6.05 13.24 8.12 15.72 8.69-.35 3.58-2.79 7.59-2.81 7.63-.19.31-.2.7-.02 1.01s.51.51.87.51c5.09 0 8.23-1.48 9.99-2.72v14.76c0 .55.45 1 1 1s1-.45 1-1v-35.68c0-.55-.45-1-1-1s-1 .45-1 1v6.25l-6.29-6.29 9.6-9.6 4.44 7.16c.18.29.5.47.85.47s.67-.18.85-.47l4.67-7.53c1.59.58 5.25 1.81 7.75 1.81.53 0 1.25-.03 2.07-.06 2.55-.11 7.84-.33 9.04.82.12.11.14.19.14.29 0 1.04 0 1.04-2.06 1.04l-1.03.01-.04-.01-.05.01c-4.18.05-7.59.35-9.9.56-1.33.12-2.39.21-3.05.21-.55 0-1 .45-1 1l.02.12-.02.12v39.78c0 .55.45 1 1 1s1-.45 1-1v-39.06c.63-.04 1.37-.1 2.23-.18 2.22-.2 5.14-.46 8.77-.54v39.82c0 .55.45 1 1 1s1-.45 1-1v-39.84h.07c2 0 4.06 0 4.06-3.04 0-.66-.26-1.26-.75-1.73-.72-.69-1.91-1.07-3.39-1.27v-5.42c.39.15.82.24 1.27.24h7v1.18c0 1.56 1.48 2.83 3.29 2.83h9.16c1.94 0 3.29-1.17 3.29-2.83.02-1.5-1.65-2.24-3-2.84zm-60.38 17.66l8.41 8.41v9.24c-.63.69-3 2.87-8.27 3.28.93-1.85 2.28-5.02 2.28-7.9 0-.49-.36-.91-.84-.99-.08-.01-7.86-1.33-14.51-7.35 2.76-1.44 9.54-5.04 15.61-8.76l-2.67 2.67c-.4.38-.4 1.01-.01 1.4zm39.45-18.84v-7.32c0-.44.57-.83 1.21-.83h8.85c.65 0 1.21.39 1.21.83v7.32c0 .44-.57.83-1.21.83h-8.85c-.64 0-1.21-.39-1.21-.83zm20.66 4.85h-9.16c-.76 0-1.29-.44-1.29-.83v-1.2c1.7-.07 3.06-1.3 3.06-2.82v-4.15h7.38c1.29 0 1.29.24 1.29.82-.07.41-1.39 1.29-2.02 1.71-1.23.82-2.21 1.48-2.21 2.46 0 1.11 1.16 1.62 2.39 2.17.55.24 1.7.75 1.83 1 .02.75-.88.84-1.27.84zm-42.59 27.63c-.5 0-.93.38-.99.88l-2.55 20.38c-.07.55.32 1.05.87 1.12.55.06 1.05-.32 1.12-.87l1.56-12.46 1.56 12.46c.06.51.49.88.99.88l.12-.01c.55-.07.94-.57.87-1.12l-2.55-20.38c-.07-.5-.49-.88-1-.88z" fill="#113B3F"/><g fill="#9EACBB"><path d="M292.29 5.06c-.18 0-.35-.1-.44-.27-.13-.24-.03-.55.21-.67l7.76-4.06c.24-.13.55-.03.67.21.13.24.03.55-.21.67l-7.76 4.06c-.07.04-.15.06-.23.06zM280.51 153.81l-15.97-9.39c-.24-.14-.54-.06-.68.18s-.06.54.18.68l15.97 9.39c.08.05.17.07.25.07.17 0 .34-.09.43-.25.14-.23.06-.54-.18-.68zm-20.8-12.24l-42.88-24.98c-.24-.14-.54-.06-.68.18s-.06.54.18.68l42.88 24.98c.08.05.17.07.25.07.17 0 .34-.09.43-.25.14-.23.06-.54-.18-.68zm39.87-13.91l-39.87-14.36c-.26-.09-.55.04-.64.3-.09.26.04.55.3.64l39.87 14.36.17.03c.21 0 .4-.13.47-.33.1-.26-.04-.54-.3-.64zm-75.33-26.06l27.97 10.07.17.03c.21 0 .4-.13.47-.33.09-.26-.04-.55-.3-.64l-27.97-10.07c-.26-.09-.55.04-.64.3-.1.26.04.55.3.64zm75.02-6.51l.08.01c.24 0 .45-.17.49-.42.04-.27-.14-.53-.42-.57l-11.33-1.82c-.27-.04-.53.14-.57.42-.04.27.14.53.42.57l11.33 1.81zm-61.86-9.92l46.05 7.38.08.01c.24 0 .45-.17.49-.42.04-.27-.14-.53-.42-.57l-46.05-7.38c-.27-.04-.53.14-.57.42-.04.26.14.51.42.56zm65.05-21.57l-42.58 2.42c-.28.02-.49.25-.47.53.01.27.24.47.5.47h.03l42.58-2.42c.28-.02.49-.25.47-.53-.02-.28-.22-.48-.53-.47zm-54.12 4.07h.03l8.74-.5c.28-.02.49-.25.47-.53-.01-.27-.22-.48-.53-.47l-8.74.5c-.28.02-.49.25-.47.53.02.26.24.47.5.47zm37.38-30.6c.06.22.26.36.48.36l.14-.02 15.09-4.26c.27-.08.42-.35.35-.62-.08-.27-.35-.42-.62-.35l-15.09 4.26c-.27.09-.43.37-.35.63zm-3.45.45l-26.87 7.58c-.27.08-.42.35-.35.62.06.22.26.36.48.36l.14-.02 26.87-7.58c.27-.08.42-.35.35-.62-.07-.25-.35-.41-.62-.34zm-30.49-11.25c.08 0 .16-.02.23-.06l35.91-18.81c.24-.13.34-.43.21-.67-.13-.24-.43-.34-.68-.21l-35.91 18.81c-.24.13-.34.43-.21.67.09.17.27.27.45.27zM38.45 144.42l-15.97 9.39c-.24.14-.32.45-.18.68.09.16.26.25.43.25.09 0 .17-.02.25-.07l15.97-9.39c.24-.14.32-.45.18-.68-.14-.25-.44-.32-.68-.18zm48.4-27.65c-.14-.24-.45-.32-.68-.18l-42.88 24.98c-.24.14-.32.44-.18.68.09.16.26.25.43.25.09 0 .17-.02.25-.07l42.88-24.98c.23-.13.31-.44.18-.68zm-42.93-3.16c-.09-.26-.38-.39-.64-.3l-39.88 14.35c-.26.09-.39.38-.3.64.07.2.27.33.47.33l.17-.03 39.87-14.36c.27-.09.4-.37.31-.63zm6.21-2.24c.07.2.27.33.47.33l.17-.03 27.97-10.07c.26-.09.39-.38.3-.64-.09-.26-.38-.39-.64-.3l-27.97 10.07c-.26.1-.39.38-.3.64zm-46.57-17.27c-.27.04-.46.3-.41.57.04.25.25.42.49.42l.08-.01 11.33-1.82c.27-.04.46-.3.41-.57-.04-.27-.3-.46-.57-.42l-11.33 1.83zm15.4-1.96c.04.25.25.42.49.42l.08-.01 46.05-7.38c.27-.04.46-.3.41-.57-.04-.27-.3-.46-.57-.42l-46.05 7.38c-.27.05-.46.3-.41.58zm24.12-25.13c.26 0 .48-.21.5-.47.02-.28-.19-.51-.47-.53l-42.58-2.41c-.28-.02-.51.19-.53.47s.19.51.47.53l42.58 2.42.03-.01zm2.32-.36c-.02.28.19.51.47.53l8.74.5h.03c.26 0 .48-.21.5-.47.02-.28-.19-.51-.47-.53l-8.74-.5c-.27-.02-.51.19-.53.47zm-43.84-33.49l15.09 4.26.14.02c.22 0 .42-.14.48-.36.07-.27-.08-.54-.35-.62l-15.09-4.26c-.27-.08-.54.08-.62.35-.07.26.08.54.35.61zm45.89 12.92c.22 0 .42-.14.48-.36.07-.27-.08-.54-.35-.62l-26.87-7.58c-.27-.07-.54.08-.62.35-.07.27.08.54.35.62l26.87 7.58.14.01zm-44.75-45.14l7.77 4.06c.07.04.15.06.23.06.18 0 .35-.1.44-.27.13-.24.03-.55-.21-.67l-7.76-4.06c-.25-.13-.55-.04-.68.21-.13.24-.03.54.21.67zm12.37 6.46l35.91 18.81c.07.04.15.06.23.06.18 0 .35-.1.44-.27.13-.24.03-.55-.21-.67l-35.91-18.81c-.24-.13-.55-.03-.67.21-.13.24-.04.54.21.67z"/></g><path d="M115.7 22.46c2.04 0 3.72-.62 5-1.84 1.39-1.34 2.1-3.22 2.1-5.58v-9.62c0-.25-.08-.48-.24-.67-.17-.2-.38-.3-.63-.3h-1.54c-.24 0-.46.1-.63.3-.16.19-.25.41-.25.67v9.64c0 2.95-1.25 4.39-3.83 4.39-1.16 0-2.07-.35-2.72-1.05-.71-.74-1.06-1.87-1.06-3.34v-9.64c0-.25-.08-.48-.24-.67-.17-.2-.38-.3-.63-.3h-1.54c-.24 0-.46.1-.63.3-.16.19-.25.41-.25.67v9.61c0 2.34.69 4.19 2.04 5.51 1.31 1.27 3 1.92 5.05 1.92zm10.35-1c.85.65 2.12.98 3.78.98 1.65 0 2.94-.43 3.84-1.27.83-.78 1.25-1.79 1.25-2.99 0-.97-.36-1.83-1.08-2.57-.37-.37-1.05-.77-2.07-1.21l-1.22-.51c-.36-.15-.68-.29-.94-.44-.24-.14-.43-.28-.57-.44-.11-.13-.17-.34-.17-.61 0-.25.15-.45.45-.64.13-.08.29-.14.45-.18.35-.08.96-.12 1.69.1.16.04.31.09.45.16l.51.25c.23.12.48.17.75.17.34 0 .63-.25.85-.74.19-.42.29-.82.29-1.19 0-.33-.19-.6-.57-.83-.91-.53-2.05-.8-3.39-.8-1.26 0-2.34.31-3.21.93-1 .71-1.51 1.67-1.51 2.88 0 .98.27 1.8.8 2.44.25.3.55.57.9.8.33.23.7.44 1.08.63.38.19.79.36 1.21.5.4.13.77.27 1.1.43.71.32 1.08.7 1.08 1.12 0 .51-.2 1.2-1.91 1.2-.44 0-.88-.08-1.32-.24-.43-.16-.78-.34-1.02-.53-.31-.25-.62-.38-.91-.38-.23 0-.55.09-.78.52-.14.26-.26.49-.34.69-.1.22-.15.47-.15.75-.01.34.21.67.68 1.02zm16.17.99c1.16 0 2.15-.24 2.94-.71.59-.36 1.06-.81 1.4-1.37.12.44.24.81.35 1.1.13.32.42.7 1.12.7h.5c.6 0 .95-.37.95-1.01 0-.16-.01-.29-.04-.38-.22-.94-.33-2.21-.33-3.76v-7.03c0-.27-.08-.5-.24-.69-.17-.2-.43-.3-.77-.3h-1.18c-.35 0-.62.1-.79.3-.17.19-.26.42-.26.7v6.7c0 .77-.32 1.44-.97 2.05-.29.27-.63.48-.99.64-.73.32-1.45.28-1.93.12-.71-.24-1.08-1.2-1.08-2.86v-6.66c0-.63-.36-.99-.99-.99h-1.24c-.31 0-.56.1-.74.29-.17.19-.26.42-.26.7v6.77c0 1.84.37 3.25 1.1 4.21.75.98 1.9 1.48 3.45 1.48zm14.77-8.68c-1.36 0-2.5.31-3.38.93-1.08.78-1.63 1.92-1.63 3.38 0 1.34.5 2.43 1.48 3.26.43.36.94.64 1.5.83.55.18 1.12.28 1.67.28.55 0 1.06-.06 1.53-.19 1.08-.3 1.94-.87 2.55-1.69l.08.56.04.32c.01.13.05.26.13.41.16.31.6.31.75.31h1.09c.53 0 .83-.31.83-.85-.03-1.05-.36-2.5-.99-4.3.24-1.14.36-2.11.36-2.87 0-1.79-.59-3.2-1.76-4.19-.99-.82-2.24-1.24-3.73-1.24-1.62 0-2.94.31-3.92.91-.57.35-.86.75-.86 1.17 0 .22.1.54.33.98.09.18.35.74.81.74.18 0 .37-.06.59-.18.9-.48 1.8-.72 2.67-.72.95 0 1.7.23 2.21.69.25.23.44.52.58.86.14.35.21.7.21 1.05l-.01.47c-.89-.61-1.94-.92-3.13-.92zm1.98 5.3c-.22.17-.48.31-.79.42-.3.11-.7.16-1.18.16-.46 0-.86-.14-1.23-.43-.17-.13-.29-.3-.38-.5-.09-.2-.14-.44-.14-.7 0-.26.05-.48.16-.67.11-.19.31-.4.59-.6.26-.19.64-.29 1.13-.29.66 0 1.23.14 1.71.42.5.28.77.65.8 1.11 0 .36-.22.73-.67 1.08zm7.37-5.63v7.74c0 .27.08.5.25.69.17.2.42.3.73.3h1.3c.3 0 .54-.1.71-.3.16-.19.24-.42.24-.69v-5.96c0-.78.21-1.53.62-2.22.2-.32.44-.6.72-.82.25-.2.49-.3.7-.3.25 0 .6.06 1.03.17.26.07.48.11.67.11.47 0 .77-.29.83-.79l.18-1.41c.05-.39-.12-.63-.28-.75-.39-.33-1.03-.49-1.96-.49-.83 0-1.55.28-2.13.82-.28.27-.52.61-.71 1.01l-.13.28c-.1-.45-.23-.84-.38-1.15-.21-.45-.59-.68-1.1-.68h-.61c-.61 0-.96.39-.96 1.06 0 .07.02.23.13.82.1.4.15 1.26.15 2.56zm12.78 5.39v-8.84c0-.27-.07-.5-.22-.68-.16-.21-.37-.31-.62-.31h-1.5c-.24 0-.45.1-.62.3-.16.19-.24.42-.24.69v8.76c0 1.28.23 2.19.71 2.79.24.3.54.51.89.64.34.12.77.18 1.32.18s1.11-.15 1.67-.43c.64-.32.97-.7.97-1.12 0-.15-.04-.3-.11-.46l-.35-.79c-.17-.39-.43-.47-.61-.47-.1 0-.26.02-.7.21-.12.05-.22.08-.3.08-.1-.01-.29-.01-.29-.55zm-1.56-11.5c.57 0 1.06-.2 1.46-.6.41-.39.62-.89.62-1.48 0-.3-.06-.57-.17-.82-.36-.83-1.01-1.25-1.91-1.25-.59 0-1.09.2-1.48.59-.41.41-.61.9-.61 1.48 0 .59.21 1.09.61 1.48.41.4.91.6 1.48.6zm11.91 15.12c1.87 0 3.45-.64 4.68-1.91 1.26-1.29 1.9-2.96 1.9-4.98 0-2.08-.57-3.75-1.68-4.95-1.16-1.25-2.81-1.89-4.9-1.89-1.87 0-3.45.63-4.68 1.88-.59.6-1.06 1.33-1.4 2.17-.34.84-.51 1.77-.51 2.77 0 2.03.6 3.69 1.8 4.95 1.21 1.3 2.82 1.96 4.79 1.96zm-3.09-8.3c.12-.5.31-.94.58-1.33.26-.38.6-.69 1-.92.41-.23.92-.34 1.52-.34s1.12.12 1.53.36c1.17.68 1.74 1.89 1.74 3.7 0 1.21-.26 2.16-.76 2.85-.56.78-1.37 1.15-2.47 1.15-1.08 0-1.9-.39-2.5-1.18-.27-.36-.48-.78-.62-1.25s-.21-.97-.21-1.49c.01-.52.07-1.04.19-1.55zm-78.34 16.3h-9.12c-.24 0-.46.1-.63.3-.16.19-.25.41-.25.67v15.78c0 .25.08.48.24.67.17.2.38.3.63.3h1.56c.24 0 .46-.1.63-.3.16-.19.25-.41.25-.67v-5.69h5.34c.34 0 .53-.15.64-.28.14-.17.21-.37.21-.6v-1.21c0-.23-.07-.43-.21-.6-.1-.13-.3-.29-.64-.29h-5.33v-5.08h6.68c.34 0 .53-.15.64-.28.14-.17.21-.37.21-.6v-1.22c0-.24-.07-.44-.21-.61-.1-.14-.3-.29-.64-.29zm5.08 4.55h-1.24c-.31 0-.56.1-.74.29-.17.19-.26.42-.26.7v6.77c0 1.84.37 3.25 1.1 4.21.74.98 1.9 1.47 3.44 1.47 1.16 0 2.15-.24 2.94-.71.59-.36 1.06-.81 1.4-1.37.12.44.24.81.35 1.1.13.32.42.7 1.12.7h.5c.6 0 .95-.37.95-1.01 0-.16-.01-.29-.04-.38-.22-.94-.33-2.21-.33-3.76v-7.02c0-.27-.08-.5-.24-.69-.17-.2-.43-.3-.76-.3h-1.18c-.35 0-.62.1-.79.3-.17.19-.26.42-.26.7v6.7c0 .77-.32 1.44-.97 2.05-.29.27-.63.48-.99.64-.73.32-1.45.27-1.93.12-.71-.24-1.08-1.2-1.08-2.86v-6.65c0-.64-.36-1-.99-1zm19.01-.11c-1.19.31-2.15.96-2.84 1.95-.12-.48-.27-.9-.42-1.23-.13-.28-.43-.61-1.08-.61h-.62c-.65 0-1.02.39-1.02 1.06 0 .09.02.3.15 1.11.09.58.14 1.63.14 3.11v6.9c0 .27.09.51.27.7.18.19.44.29.78.29h1.16c.33 0 .59-.1.77-.3.17-.19.25-.42.25-.69v-6.24c0-.92.33-1.71 1.02-2.41.64-.65 1.32-.96 2.08-.96 1.25 0 1.86.86 1.86 2.62v6.99c0 .27.09.51.27.7.18.19.46.29.81.29h1.1c.33 0 .59-.1.78-.29.18-.19.27-.42.27-.7v-6.98c0-1.69-.3-2.99-.9-3.88-.33-.5-.79-.9-1.35-1.18-.56-.28-1.19-.43-1.85-.43-.65.01-1.2.07-1.63.18zm9.94 1.96c-.95 1.28-1.43 2.91-1.43 4.84 0 1.88.5 3.47 1.48 4.74.48.62 1.08 1.11 1.77 1.47.7.36 1.41.54 2.11.54.69 0 1.28-.07 1.75-.2 1.19-.35 2.1-1.01 2.72-1.96.11.47.23.87.37 1.19.13.32.43.69 1.12.69h.55c.28 0 .52-.09.71-.27.19-.18.28-.39.28-.62 0-.18-.01-.33-.04-.46-.23-.97-.35-2.22-.35-3.7v-14.4c0-.25-.08-.47-.22-.66-.16-.2-.37-.3-.62-.3h-1.56c-.25 0-.46.1-.62.3-.15.18-.23.41-.23.66v7.43c-.91-.95-2.11-1.42-3.59-1.42-1.75 0-3.16.71-4.2 2.13zm7.06 1.8c.67.77 1.01 1.82 1.01 3.12 0 1.05-.35 1.98-1.04 2.76-.65.74-1.37 1.1-2.21 1.1-.92 0-1.63-.39-2.15-1.19-.24-.36-.42-.77-.53-1.23-.12-.46-.18-.95-.18-1.43 0-1.13.21-2.1.63-2.88.5-.9 1.2-1.34 2.15-1.34.92-.01 1.68.35 2.32 1.09zm8.3-3.02c-.57.35-.86.75-.86 1.17 0 .22.1.54.33.98.09.18.35.74.81.74.18 0 .37-.06.59-.18.9-.48 1.8-.72 2.67-.72.95 0 1.7.23 2.21.69.25.23.44.52.58.86.14.35.21.71.21 1.05l-.01.47c-.88-.61-1.93-.92-3.12-.92-1.36 0-2.5.31-3.38.93-1.08.78-1.63 1.92-1.63 3.38 0 1.34.5 2.43 1.48 3.26.43.36.94.64 1.5.83.55.18 1.12.28 1.67.28.55 0 1.06-.06 1.53-.19 1.08-.3 1.94-.87 2.55-1.69l.08.56.04.32c.01.13.05.26.13.41.16.31.6.31.75.31h1.09c.53 0 .83-.31.83-.85-.03-1.06-.36-2.5-.99-4.3.24-1.14.36-2.11.36-2.87 0-1.79-.59-3.2-1.76-4.19-.99-.82-2.24-1.24-3.73-1.24-1.64 0-2.95.3-3.93.91zm5.38 9.44c-.22.17-.48.31-.79.42-.3.11-.7.16-1.18.16-.46 0-.86-.14-1.23-.43-.17-.13-.29-.3-.38-.5-.09-.2-.14-.44-.14-.7 0-.26.05-.48.16-.67.11-.19.31-.4.59-.6.26-.19.64-.29 1.13-.29.66 0 1.23.14 1.71.42.5.28.77.65.8 1.11 0 .36-.22.73-.67 1.08zm8-8.22c-.95 1.28-1.43 2.91-1.43 4.84 0 1.88.5 3.47 1.48 4.74.49.62 1.08 1.11 1.77 1.47.7.36 1.41.54 2.11.54.69 0 1.28-.07 1.75-.2 1.19-.35 2.1-1.01 2.72-1.96.11.47.23.86.37 1.19.13.32.43.69 1.12.69h.55c.28 0 .52-.09.71-.27.19-.18.28-.39.28-.62 0-.18-.01-.33-.04-.46-.23-.97-.35-2.22-.35-3.7v-14.4c0-.25-.08-.47-.22-.66-.16-.2-.37-.3-.62-.3h-1.56c-.25 0-.46.1-.62.3-.15.18-.23.41-.23.66v7.43c-.91-.95-2.11-1.42-3.59-1.42-1.75 0-3.16.71-4.2 2.13zm2.58 2.04c.5-.9 1.2-1.34 2.15-1.34.93 0 1.69.36 2.33 1.09.67.77 1.01 1.82 1.01 3.12 0 1.06-.35 1.98-1.04 2.76-.65.74-1.37 1.1-2.21 1.1-.92 0-1.62-.39-2.15-1.19-.24-.36-.42-.77-.53-1.23-.12-.46-.18-.95-.18-1.43-.01-1.13.2-2.1.62-2.88zm17.99-4.17c-1.87 0-3.45.63-4.68 1.88-.59.6-1.06 1.33-1.4 2.17-.34.84-.51 1.77-.51 2.77 0 2.03.6 3.69 1.8 4.95 1.2 1.3 2.82 1.96 4.79 1.96 1.87 0 3.45-.64 4.68-1.91 1.26-1.29 1.9-2.96 1.9-4.98 0-2.08-.57-3.75-1.68-4.95-1.16-1.26-2.8-1.89-4.9-1.89zm2.52 9.75c-.56.78-1.37 1.15-2.47 1.15-1.08 0-1.9-.39-2.5-1.18-.27-.36-.48-.78-.62-1.25s-.21-.98-.21-1.49c0-.52.06-1.04.18-1.55.12-.5.31-.94.58-1.33.26-.38.6-.69 1.01-.92.41-.23.92-.34 1.52-.34s1.12.12 1.53.36c1.17.68 1.74 1.89 1.74 3.7 0 1.2-.26 2.16-.76 2.85zm14.65-9.27c-.39-.33-1.03-.49-1.96-.49-.83 0-1.55.28-2.13.82-.28.27-.52.61-.71 1.01l-.13.28c-.1-.45-.23-.84-.38-1.15-.21-.45-.59-.68-1.1-.68h-.61c-.61 0-.96.39-.96 1.06 0 .07.02.23.13.82.08.4.12 1.27.12 2.56v7.74c0 .27.08.5.25.69.17.2.42.3.73.3h1.3c.3 0 .54-.1.71-.3.16-.19.24-.42.24-.69v-5.96c0-.78.21-1.53.62-2.22.2-.32.44-.6.72-.82.25-.2.49-.3.7-.3.25 0 .6.06 1.03.17.26.07.48.11.67.11.47 0 .77-.29.83-.79l.18-1.41c.08-.39-.1-.62-.25-.75zm-16.14 108.71c-.18-.08-17.85-8.26-41.39-8.26-23.42 0-39.91 8.11-40.07 8.19-.49.25-.69.85-.45 1.34.25.49.85.69 1.34.45.16-.08 16.23-7.98 39.18-7.98 23.07 0 40.37 7.99 40.54 8.08.14.06.28.09.42.09.38 0 .74-.21.91-.58.23-.5.02-1.09-.48-1.33z" fill="#24B37F"/></svg>