<svg xmlns="http://www.w3.org/2000/svg" id='user_founder_footer' width="205.77" height="184.09" viewBox="0 0 205.77 184.09"><path fill="#22B37F" d="M150.06 184.94c-.15 0-.3-.03-.44-.1-.21-.1-20.83-9.92-48.35-9.92-27.37 0-46.54 9.71-46.73 9.81-.5.26-1.11.06-1.36-.44-.26-.5-.06-1.11.44-1.36.19-.1 19.8-10.03 47.65-10.03 28 0 49.02 10.02 49.23 10.12.5.24.71.85.47 1.35-.17.36-.53.57-.91.57z"/><path fill="#fff" d="M101.07 141.94c-.5 0-.93.38-.99.88l-3 23.95c-.07.55.32 1.05.87 1.12.55.06 1.05-.32 1.12-.87l2.01-16.03 2.01 16.03c.06.51.49.88.99.88l.13-.01c.55-.07.94-.57.87-1.12l-3-23.95c-.08-.5-.51-.88-1.01-.88zm53.99-43.7c.09-.99-.13-1.79-.66-2.36-.78-.85-1.98-.96-2.95-.96h-8.4v-.76c0-1.78-1.63-3.24-3.64-3.24h-10.72c-.59 0-1.14.14-1.64.36v-2.39c0-.55-.45-1-1-1s-1 .45-1 1v23.01c-1.83-.04-3.9.07-6.1.22-1.14.08-2.12.15-2.8.15-3.42 0-9.3-2.25-9.36-2.27-.45-.18-.97-.01-1.22.4l-5.27 8.63-5.23-8.67c-.35-.51-1.16-.57-1.56-.18-6.52 6.5-31.61 19.15-31.87 19.27-.9.41-.53 1.33-.26 1.6 7.4 7.42 16.77 10.3 19.6 11.04-.38 4.18-3.62 8.14-3.66 8.18-.7.76.04 1.64.77 1.64 6.84 0 10.96-2.23 12.96-3.74v18.74c0 .55.45 1 1 1s1-.45 1-1v-42.95c0-.55-.45-1-1-1s-1 .45-1 1v9.12l-8.6-8.2 11.6-12.35 5.39 8.93c.45.69 1.4.56 1.7 0l5.68-9.3c1.8.67 6.27 2.12 9.32 2.12.75 0 1.76-.07 2.94-.15 3.4-.23 9.08-.62 10.64.84.22.21.33.44.33.75 0 1.14-.12 1.44-2.94 1.44l-1.13.01c-5.1.07-9.35.54-12.22.87-1.63.19-2.92.33-3.71.33-.55 0-1 .45-1 1v47.54c0 .55.45 1 1 1s1-.45 1-1v-46.58c.78-.06 1.74-.16 2.94-.3 2.8-.32 6.51-.74 11.06-.85v47.73c0 .55.45 1 1 1s1-.45 1-1c0 0-.01-47.76.02-47.76 2.08 0 4.99 0 4.99-3.44 0-.86-.33-1.62-.96-2.21-.89-.83-2.3-1.27-4.05-1.47v-6.06c.5.22 1.05.36 1.64.36h8.37v1.36c0 1.78 1.63 3.23 3.64 3.23h10.75c1.22 0 2.3-.43 2.95-1.18.52-.6.74-1.36.62-2.2-.21-1.49-1.88-2.48-3.36-3.36-.48-.29-1.16-.69-1.49-.96.31-.3.97-.75 1.44-1.08 1.56-1.06 3.3-2.25 3.45-3.9zm-74.73 25.98c-.37.4-.36 1.03.04 1.41l10.7 10.2v9.67l-.05.04c-.03.04-3.25 3.73-10.91 4.29 1.23-1.9 2.93-5.14 2.93-8.53 0-.47-.33-.88-.79-.98-.11-.02-10.34-2.29-18.43-9.74 3.61-1.85 14.09-7.32 22.24-12.49l-5.73 6.13zm48.38-19.9c-.89 0-1.64-.57-1.64-1.23v-8.94c0-.67.75-1.24 1.64-1.24h10.72c.89 0 1.64.57 1.64 1.24v8.94c0 .67-.75 1.23-1.64 1.23h-10.72zm19.36-1.09c0 1.14 1.2 1.85 2.59 2.67.87.51 2.33 1.38 2.4 1.92.05.33-.06.5-.15.61-.26.3-.82.49-1.44.49h-10.75c-.89 0-1.64-.57-1.64-1.23v-1.36h.35c2.01 0 3.64-1.45 3.64-3.23v-6.17h8.4c.79 0 1.28.1 1.47.31.16.18.17.55.14.83-.07.72-1.57 1.75-2.57 2.43-1.37.92-2.44 1.65-2.44 2.73zm-47.81 5.66c5.97 0 7.14-4.16 7.14-11.36v-.81c.66-.34 1.23-.78 1.73-1.3 2.47-2.6 1.96-6.41 1.94-6.57-.05-.32-.24-.59-.53-.74-.28-.15-.62-.15-.91-.01-.02.01-2.31 1.11-5.69 1.11-2.96 0-10.81 0-10.81 8.62-.01 7.18 1.13 11.06 7.13 11.06zm-5.13-11.05c0-5.81 4.23-6.62 8.81-6.62 2.21 0 4.01-.41 5.16-.78-.07 1.04-.38 2.5-1.43 3.6-1.25 1.31-3.3 1.84-6.09 1.58-2.77-.26-3.92 1.05-4.84 2.1-.52.59-.93 1.05-1.6 1.27-.01-.36-.01-.75-.01-1.15zm3.11 1.21c.81-.92 1.4-1.59 3.15-1.42 1.49.14 2.83.08 4-.18v.09c0 8-1.58 9.35-5.13 9.35-3.05 0-4.6-.89-5.01-5.85 1.5-.3 2.32-1.22 2.99-1.99z"/><path fill="#22B57F" d="M177.46 101.16c-4.97 2.49-5.67 7.71-5.06 11.42 6.79-4.02 6.15-9.59 5.06-11.42zm-134.41 17.23c.33-4.9-3.86-8.28-7.36-10.16-1.58 4.52 2.41 8.41 7.36 10.16zm127.03-10.16c-3.5 1.88-7.7 5.26-7.36 10.16 4.95-1.75 8.94-5.64 7.36-10.16zm13.45-13.96c-4.02 2.07-4.15 8.57-3.01 12.1 5.85-4.77 4.47-10.34 3.01-12.1zm-158.29 12.1c1.15-3.54 1.01-10.03-3.01-12.1-1.45 1.76-2.83 7.33 3.01 12.1zm-10.18-56.53c-1.64.12-6.83 2.83-7.42 9.53 3.26-1.03 7.39-3.43 7.42-9.53zm2.66-8.64c-2.94.24-7.51 4.6-8.38 9.5 3.01-.68 8.22-5.06 8.38-9.5zm170.48 43.42c-3.31 4.87-2.52 11.01-.55 14.2 2.73-3.12 4.62-9.67.55-14.2zm-154.83 27.97c.62-3.71-.08-8.94-5.06-11.42-1.09 1.82-1.73 7.39 5.06 11.42zm158.2-36.74c-2.44 4.5-.82 10.39 1.6 13.94 4.01-6.49.29-12.62-1.6-13.94zm-3.52-34.65c.16 4.44 5.38 8.82 8.38 9.5-.87-4.9-5.44-9.26-8.38-9.5zm7.3 3.52c.44-6.93-1.52-12-9.36-17.32 1.88 7.83 5.94 15.19 9.36 17.32zm-183.11 22.33c-3.9 1.33-4.91 8.02-3.6 11.9 3-2.71 5.53-6.34 3.6-11.9zm178.47-17.21c.03 6.1 4.16 8.49 7.42 9.53-.59-6.7-5.78-9.41-7.42-9.53zm6.4 31.21c5.25-1.01 9.98-5.44 8.33-11.91-4.5 1.55-7.43 8.42-8.33 11.91zm1.82-12.38c.5-6.25-4.21-9.51-6.46-9.78-.85 4.31 3.34 8.19 6.46 9.78zm-1.14-29.69c-2.91 4.62-1.24 11.07-.43 13.81 1.3-1.02 4.93-5.58.43-13.81zm.96 21.67c1.89-1 6.81-4.49 2.94-11.16-2.7 1.57-3.35 8.06-2.94 11.16zm.56 9.57c2.9-1.02 7.1-6.07 4.13-11.57-4.03 3.4-4 8.59-4.13 11.57zm-2.18 8.74c1.31-3.88.3-10.58-3.6-11.9-1.93 5.55.6 9.18 3.6 11.9zm-190.29-10.29c3.12-1.59 7.3-5.47 6.46-9.78-2.25.27-6.96 3.53-6.46 9.78zm7.36 7.18c-1.89 1.32-5.61 7.45-1.6 13.94 2.42-3.55 4.04-9.44 1.6-13.94zm147.18 37.89c-3.55 1.79-7.83 5.07-7.62 9.97 5-1.62 9.09-5.4 7.62-9.97zm-123.54 9.33c8.68 6.1 13.42 3.52 14 1.29-3.33-1.13-11.34-3.62-14-1.29zm6.55-9.33c-1.47 4.56 2.62 8.35 7.62 9.97.21-4.9-4.07-8.17-7.62-9.97zm118.51 5.28c.64 2.21 5.44 4.67 13.96-1.64-2.72-2.25-10.66.43-13.96 1.64zm8.25-5.17c1.6 1.23 10.06 4.38 16.35-3-4.68-2.13-13.32 1.25-16.35 3zm22.01-22.54c3.9-.88 12.31-2.2 10.26-10.14-3.87.65-9.39 8.19-10.26 10.14zm-5.92 8.73c3.32 1.14 10.28 1.06 12.99-7.03-3.39-.61-9.69 2.25-12.99 7.03zm-144.37 18.98c-3.3-1.21-11.24-3.9-13.96-1.64 8.52 6.32 13.32 3.86 13.96 1.64zm136.43-11.17c1.81 1.02 9.29 2.7 14.37-4.4-5.02-1.33-11.72 2.26-14.37 4.4zm-25.37 16.5c.58 2.23 5.32 4.81 14-1.29-2.66-2.32-10.67.17-14 1.29zm-147.47-54.13c-.13-2.97-.1-8.17-4.13-11.57-2.97 5.5 1.22 10.55 4.13 11.57zm.55-9.57c.41-3.1-.23-9.59-2.94-11.16-3.87 6.67 1.06 10.16 2.94 11.16zm1.39-7.86c.81-2.74 2.49-9.19-.43-13.81-4.49 8.23-.86 12.79.43 13.81zm9.17 31.83c-4.07 4.53-2.17 11.08.55 14.2 1.96-3.19 2.75-9.34-.55-14.2zm2.21-57.22c-7.84 5.31-9.8 10.39-9.36 17.32 3.42-2.13 7.48-9.49 9.36-17.32zm-1.25 72.64c-3.31-4.78-9.6-7.64-12.99-7.03 2.71 8.09 9.67 8.18 12.99 7.03zm7.94 7.81c-2.65-2.14-9.35-5.73-14.37-4.4 5.08 7.1 12.55 5.42 14.37 4.4zm-8.21 3c6.29 7.38 14.75 4.23 16.35 3-3.02-1.75-11.66-5.13-16.35-3zm-9.6-29.8c-.91-3.49-3.84-10.36-8.33-11.91-1.64 6.47 3.08 10.9 8.33 11.91zm-6.31.11c-2.05 7.94 6.37 9.27 10.26 10.15-.87-1.95-6.39-9.49-10.26-10.15z"/><g fill="#fff"><path d="M63.5 4.21h-2.01c-.3 0-.56.12-.77.36-.2.23-.3.51-.3.82v12.57c0 3.9-1.66 5.8-5.07 5.8-1.53 0-2.74-.47-3.6-1.39-.94-.98-1.41-2.47-1.41-4.41v-12.56c0-.31-.1-.59-.29-.82-.2-.24-.47-.37-.76-.37h-2.01c-.3 0-.56.12-.77.36-.2.23-.3.51-.3.82v12.54c0 3.02.89 5.43 2.64 7.14 1.67 1.64 3.86 2.47 6.52 2.47 2.64 0 4.82-.8 6.47-2.38 1.8-1.73 2.71-4.16 2.71-7.23v-12.53c0-.31-.1-.59-.29-.82-.2-.24-.47-.37-.76-.37zM78.75 25.9c1.06-1 1.6-2.3 1.6-3.84 0-1.24-.47-2.35-1.39-3.3-.48-.48-1.35-.99-2.67-1.56l-1.59-.66c-.48-.19-.89-.38-1.23-.57-.32-.18-.58-.38-.76-.59-.16-.19-.24-.47-.24-.85 0-.35.21-.64.63-.9.18-.11.39-.19.61-.25.47-.11 1.29-.15 2.24.13.21.05.41.13.59.21.2.09.42.2.67.33.28.14.6.22.95.22.41 0 .76-.31 1.03-.92.24-.54.37-1.05.37-1.52 0-.4-.24-.74-.71-1.02-1.18-.68-2.65-1.03-4.39-1.03-1.63 0-3.02.4-4.14 1.2-1.29.91-1.94 2.15-1.94 3.69 0 1.26.34 2.31 1.03 3.13.33.39.72.74 1.16 1.04.43.29.9.57 1.4.81.5.25 1.02.46 1.56.64.52.17 1.01.36 1.45.56.96.43 1.45.95 1.45 1.53 0 .41 0 1.64-2.56 1.64-.58 0-1.17-.11-1.75-.32-.57-.21-1.03-.44-1.36-.71-.39-.31-.77-.47-1.14-.47-.28 0-.67.11-.95.64-.18.34-.33.64-.45.89-.13.28-.19.6-.19.94 0 .4.29.81.87 1.25 1.09.84 2.74 1.27 4.88 1.27 2.14.02 3.81-.53 4.97-1.61zM93.75 26.61c.81-.49 1.45-1.13 1.89-1.91.17.65.34 1.19.5 1.6.16.39.52.86 1.39.86h.66c.75 0 1.16-.44 1.16-1.25 0-.2-.02-.36-.05-.48-.29-1.24-.43-2.89-.43-4.92v-9.16c0-.33-.1-.62-.29-.85-.21-.24-.52-.37-.94-.37h-1.54c-.43 0-.76.12-.98.36-.21.23-.31.52-.31.85v8.75c0 1.03-.42 1.92-1.29 2.73-.39.35-.83.64-1.32.85-.97.42-1.92.37-2.57.15-.97-.32-1.46-1.6-1.46-3.81v-8.67c0-.78-.43-1.22-1.22-1.22h-1.61c-.38 0-.69.12-.91.36-.21.23-.32.52-.32.86v8.83c0 2.38.48 4.21 1.41 5.45.95 1.26 2.44 1.89 4.43 1.89 1.5.02 2.78-.29 3.8-.9zM110.71 27.29c1.46-.4 2.6-1.18 3.39-2.32.05.31.1.61.13.91l.06.43c.01.16.06.32.16.5.19.36.73.36.91.36h1.42c.64 0 1.01-.37 1.01-1.03-.04-1.37-.47-3.26-1.3-5.6.32-1.5.48-2.76.48-3.75 0-2.31-.76-4.13-2.27-5.41-1.27-1.06-2.89-1.6-4.82-1.6-2.1 0-3.8.4-5.07 1.18-.72.45-1.09.94-1.09 1.46 0 .28.14.69.42 1.25.46.98.99 1.1 1.72.7 1.19-.63 2.37-.95 3.52-.95 1.26 0 2.25.31 2.94.92.33.31.59.69.77 1.15.18.47.28.94.28 1.4 0 .28 0 .53-.01.76-1.16-.84-2.55-1.27-4.15-1.27-1.76 0-3.23.4-4.37 1.2-1.39 1-2.1 2.47-2.1 4.35 0 1.72.64 3.13 1.91 4.19.56.47 1.21.83 1.93 1.06.72.24 1.44.36 2.16.36.72-.01 1.38-.09 1.97-.25zm-3.62-6.36c.15-.26.42-.53.79-.81.35-.26.87-.4 1.52-.4.87 0 1.63.19 2.26.55.68.38 1.04.88 1.09 1.51 0 .5-.31 1-.92 1.47-.29.23-.64.42-1.04.56-.4.15-.93.22-1.56.22-.61 0-1.17-.19-1.65-.57-.23-.18-.4-.4-.52-.68-.12-.27-.19-.59-.19-.95 0-.34.07-.64.22-.9zM125.55 18.17c0-1.03.28-2.02.83-2.93.27-.43.59-.8.95-1.08.34-.27.67-.41.96-.41.33 0 .79.08 1.37.23.34.09.62.14.86.14.58 0 .94-.34 1.01-.97l.23-1.84c.05-.38-.07-.7-.33-.91-.49-.41-1.31-.62-2.5-.62-1.07 0-1.98.35-2.72 1.05-.36.35-.67.79-.92 1.29-.1.21-.19.41-.26.59-.14-.69-.32-1.27-.54-1.73-.26-.55-.74-.85-1.37-.85h-.79c-.44 0-1.17.17-1.17 1.3 0 .09.02.3.17 1.05.11.53.16 1.66.16 3.36v10.09c0 .33.1.62.3.85.21.24.51.36.9.36h1.7c.37 0 .66-.12.87-.37.19-.23.29-.52.29-.85v-7.75zM136.05 7.81c.72 0 1.35-.26 1.86-.76.52-.5.78-1.13.78-1.88 0-.37-.07-.72-.21-1.04-.46-1.05-1.28-1.58-2.43-1.58-.75 0-1.38.25-1.88.75-.52.52-.78 1.15-.78 1.88 0 .75.26 1.38.78 1.88s1.15.75 1.88.75zM138.01 22.89v-11.53c0-.33-.09-.61-.27-.84-.19-.24-.45-.37-.75-.37h-1.96c-.29 0-.54.12-.75.37-.19.23-.29.52-.29.85v11.43c0 1.63.3 2.84.91 3.59.31.37.69.65 1.13.81.43.16 1 .23 1.69.23.71 0 1.43-.19 2.14-.55.82-.41 1.22-.87 1.22-1.4 0-.18-.05-.38-.14-.57l-.45-1.03c-.21-.47-.51-.57-.73-.57-.11 0-.32.03-.88.27-.16.07-.3.11-.42.11-.14-.01-.45-.01-.45-.8zM157.64 25.07c1.63-1.66 2.46-3.83 2.46-6.44 0-2.7-.73-4.86-2.18-6.41-1.5-1.62-3.63-2.44-6.34-2.44-2.42 0-4.46.82-6.05 2.43-.76.77-1.37 1.71-1.8 2.8-.43 1.08-.65 2.29-.65 3.59 0 2.62.78 4.78 2.32 6.41 1.56 1.68 3.64 2.53 6.19 2.53 2.42-.01 4.46-.84 6.05-2.47zm-2.71-2.61c-.75 1.03-1.82 1.54-3.28 1.54-1.43 0-2.52-.51-3.32-1.57-.36-.48-.64-1.04-.82-1.66-.18-.62-.28-1.28-.28-1.96 0-.69.08-1.37.24-2.04.16-.65.42-1.25.76-1.76s.79-.92 1.34-1.23c.54-.3 1.22-.46 2.02-.46s1.48.16 2.04.48c1.53.89 2.31 2.53 2.31 4.9 0 1.59-.34 2.85-1.01 3.76zM45.38 38.21h-11.9c-.3 0-.56.12-.77.36-.2.23-.3.51-.3.82v20.58c0 .31.1.59.29.82.2.24.47.37.76.37h2.04c.3 0 .56-.12.77-.36.2-.23.3-.51.3-.82v-7.5h7.04c.33 0 .59-.11.77-.33.17-.21.25-.46.25-.74v-1.58c0-.28-.08-.53-.25-.74-.12-.16-.36-.34-.77-.34h-7.03v-6.78h8.79c.33 0 .59-.11.77-.33.17-.21.25-.46.25-.74v-1.6c0-.29-.09-.54-.25-.75-.17-.23-.43-.34-.76-.34zM63.91 54.51v-9.16c0-.33-.1-.62-.29-.85-.21-.24-.52-.37-.94-.37h-1.54c-.43 0-.76.12-.98.36-.21.23-.31.52-.31.85v8.75c0 1.03-.42 1.92-1.29 2.73-.39.35-.83.64-1.32.85-.96.42-1.92.37-2.57.15-.97-.32-1.46-1.6-1.46-3.81v-8.67c0-.78-.43-1.22-1.22-1.22h-1.61c-.38 0-.69.12-.91.36-.21.23-.32.52-.32.86v8.83c0 2.38.48 4.21 1.41 5.45.95 1.26 2.44 1.89 4.43 1.89 1.5 0 2.78-.31 3.8-.92.81-.49 1.45-1.13 1.89-1.91.17.65.34 1.19.5 1.6.16.39.52.86 1.39.86h.66c.75 0 1.16-.44 1.16-1.25 0-.2-.02-.36-.05-.48-.29-1.21-.43-2.86-.43-4.9zM81.29 44.32c-.73-.36-1.52-.55-2.38-.55-.83 0-1.54.08-2.11.23-1.6.41-2.86 1.3-3.75 2.66-.17-.7-.37-1.29-.59-1.76-.16-.35-.53-.76-1.34-.76h-.81c-.81 0-1.26.46-1.26 1.3 0 .11.02.38.19 1.44.12.76.19 2.13.19 4.07v8.99c0 .34.11.63.33.86.22.24.55.36.96.36h1.51c.41 0 .73-.12.95-.36.21-.23.31-.52.31-.85v-8.15c0-1.21.45-2.28 1.35-3.19.84-.85 1.77-1.27 2.77-1.27 1.69 0 2.5 1.15 2.5 3.5v9.11c0 .34.11.63.33.86.22.24.56.36 1 .36h1.44c.41 0 .73-.12.96-.36.22-.23.33-.52.33-.86v-9.1c0-2.19-.39-3.88-1.15-5.02-.42-.63-1-1.14-1.73-1.51zM104.09 54.65v-18.78c0-.31-.09-.58-.28-.81-.19-.24-.45-.36-.75-.36h-2.04c-.3 0-.56.12-.76.36-.19.23-.29.5-.29.81v9.88c-1.18-1.31-2.78-1.97-4.76-1.97-2.24 0-4.06.93-5.4 2.75-1.23 1.66-1.85 3.77-1.85 6.27 0 2.43.64 4.49 1.91 6.13.62.8 1.39 1.44 2.29 1.9.9.47 1.81.7 2.72.7.89 0 1.65-.09 2.26-.26 1.6-.47 2.81-1.37 3.61-2.68.15.68.32 1.26.51 1.72.16.39.54.86 1.39.86h.72c.35 0 .64-.11.87-.33.23-.22.35-.48.35-.76 0-.23-.02-.42-.05-.58-.3-1.28-.45-2.91-.45-4.85zm-3.74-1.76c0 1.4-.46 2.62-1.37 3.64-.86.99-1.82 1.47-2.95 1.47-1.23 0-2.17-.52-2.87-1.59-.31-.47-.55-1.02-.71-1.62-.16-.61-.23-1.25-.23-1.89 0-1.48.28-2.76.83-3.79.66-1.2 1.6-1.79 2.87-1.79 1.23 0 2.25.48 3.09 1.45.89 1.03 1.34 2.41 1.34 4.12zM121.99 50.78c0-2.31-.76-4.13-2.27-5.41-1.27-1.06-2.89-1.6-4.82-1.6-2.1 0-3.8.4-5.07 1.18-.72.45-1.08.94-1.08 1.46 0 .28.14.69.42 1.25.46.98.99 1.1 1.72.7 1.19-.63 2.37-.95 3.52-.95 1.26 0 2.25.31 2.94.92.33.31.59.69.77 1.15.18.47.28.94.28 1.4 0 .28 0 .53-.01.76-1.16-.84-2.55-1.27-4.15-1.27-1.76 0-3.23.4-4.37 1.2-1.39 1-2.1 2.46-2.1 4.35 0 1.72.64 3.13 1.91 4.19.56.47 1.21.83 1.93 1.06.72.24 1.44.36 2.16.36.71 0 1.38-.08 1.97-.24 1.46-.4 2.6-1.18 3.39-2.32.05.31.1.61.13.91l.06.43c.01.16.06.32.16.5.19.36.73.36.91.36h1.42c.64 0 1.01-.37 1.01-1.03-.04-1.37-.47-3.26-1.3-5.6.31-1.51.47-2.77.47-3.76zm-9.89 4.15c.15-.26.42-.53.79-.81.35-.26.87-.4 1.52-.4.87 0 1.63.19 2.26.55.68.38 1.04.88 1.09 1.51 0 .5-.31 1-.92 1.47-.29.23-.64.42-1.04.56-.4.15-.93.22-1.56.22-.61 0-1.17-.19-1.65-.57-.23-.18-.4-.4-.52-.68-.12-.27-.19-.59-.19-.95 0-.34.07-.64.22-.9zM141.57 54.65v-18.78c0-.31-.09-.58-.28-.81-.19-.24-.45-.36-.75-.36h-2.04c-.3 0-.56.12-.76.36-.19.23-.29.5-.29.81v9.88c-1.18-1.31-2.78-1.97-4.76-1.97-2.24 0-4.06.93-5.4 2.75-1.23 1.66-1.85 3.77-1.85 6.27 0 2.43.64 4.49 1.92 6.13.62.8 1.39 1.44 2.29 1.9.9.47 1.81.7 2.72.7.89 0 1.65-.09 2.26-.26 1.59-.47 2.81-1.37 3.61-2.68.15.68.32 1.26.51 1.72.16.39.54.86 1.39.86h.72c.35 0 .64-.11.87-.33.23-.22.35-.48.35-.76 0-.22-.02-.42-.05-.58-.3-1.28-.46-2.91-.46-4.85zm-3.73-1.76c0 1.4-.46 2.62-1.37 3.64-.86.99-1.82 1.47-2.95 1.47-1.23 0-2.17-.52-2.87-1.59-.32-.47-.55-1.02-.71-1.62-.16-.61-.23-1.25-.23-1.89 0-1.48.28-2.76.83-3.79.66-1.2 1.6-1.79 2.87-1.79 1.23 0 2.25.48 3.09 1.45.89 1.03 1.34 2.41 1.34 4.12zM154.08 43.78c-2.42 0-4.46.82-6.05 2.43-.76.77-1.37 1.71-1.8 2.8-.43 1.08-.65 2.29-.65 3.59 0 2.62.78 4.78 2.32 6.41 1.56 1.68 3.64 2.53 6.19 2.53 2.42 0 4.46-.83 6.05-2.46 1.63-1.66 2.46-3.83 2.46-6.44 0-2.7-.73-4.86-2.18-6.41-1.5-1.63-3.63-2.45-6.34-2.45zm3.34 12.68c-.75 1.03-1.82 1.54-3.28 1.54-1.43 0-2.52-.51-3.32-1.57-.36-.48-.64-1.04-.82-1.66-.18-.62-.28-1.28-.28-1.96 0-.69.08-1.37.24-2.04.16-.65.42-1.25.76-1.76s.79-.92 1.34-1.23c.54-.3 1.22-.46 2.02-.46s1.48.16 2.04.48c1.53.89 2.31 2.53 2.31 4.9 0 1.59-.34 2.85-1.01 3.76zM176.42 44.39c-.49-.41-1.31-.62-2.5-.62-1.07 0-1.98.35-2.72 1.05-.36.35-.67.79-.92 1.29-.1.21-.19.41-.26.59-.14-.69-.32-1.27-.54-1.73-.26-.55-.74-.85-1.37-.85h-.79c-.44 0-1.17.17-1.17 1.3 0 .09.02.3.17 1.05.11.53.16 1.66.16 3.36v10.09c0 .33.1.62.3.85.21.24.51.36.9.36h1.7c.37 0 .66-.12.87-.37.19-.23.29-.52.29-.85v-7.78c0-1.03.28-2.02.83-2.93.27-.43.59-.8.95-1.08.34-.27.67-.41.96-.41.33 0 .79.08 1.37.23.34.09.62.14.86.14.58 0 .94-.34 1.01-.97l.23-1.84c.06-.34-.06-.66-.33-.88z"/></g></svg>